<svg width="72" height="72" viewBox="0 0 72 72" fill="none" xmlns="http://www.w3.org/2000/svg">
<path d="M32.393 52.8562C30.9141 51.3813 28.9107 50.553 26.822 50.553C24.7333 50.553 22.7299 51.3813 21.251 52.8562C18.9133 55.1939 18.0855 58.9135 17.3553 62.1867C16.7484 64.9135 16.1741 67.489 14.9111 68.7532C14.7067 68.9647 14.5937 69.2481 14.5962 69.5422C14.5988 69.8363 14.7168 70.1176 14.9247 70.3256C15.1327 70.5336 15.414 70.6516 15.7082 70.6541C16.0023 70.6567 16.2856 70.5436 16.4972 70.3393C17.7602 69.0762 20.3357 68.5019 23.0637 67.8939C26.3402 67.1648 30.0553 66.337 32.393 63.9993C33.8686 62.5206 34.6973 60.5168 34.6973 58.4278C34.6973 56.3388 33.8686 54.335 32.393 52.8562Z" fill="#4AB4BF"/>
<path d="M47.7322 49.7121L65.0369 30.7282L54.522 20.2133L35.5381 37.5179L47.7322 49.7121Z" fill="#4AB4BF"/>
<path d="M66.549 29.0681L68.7924 26.607C70.0382 25.2415 70.7097 23.4484 70.6674 21.6004C70.6251 19.7525 69.8722 17.992 68.5653 16.6849C67.2583 15.3778 65.4979 14.6247 63.65 14.5822C61.802 14.5397 60.0088 15.211 58.6432 16.4566L56.1821 18.7001L66.549 29.0681Z" fill="#4AB4BF"/>
<path d="M33.8758 39.0356L30.0485 42.523C29.9365 42.6254 29.8465 42.7494 29.7838 42.8876L27.3059 48.338C29.8181 48.4491 32.1976 49.4968 33.9758 51.2748C35.754 53.0528 36.802 55.4322 36.9134 57.9443L42.3638 55.4676C42.5022 55.4054 42.6263 55.3152 42.7283 55.2029L46.2169 51.3767L33.8758 39.0356Z" fill="#4AB4BF"/>
<path d="M40.0991 26.6664C39.8523 25.585 39.9317 24.4547 40.3273 23.4184C40.7229 22.3821 41.4168 21.4864 42.3215 20.8445C43.2261 20.2026 44.3008 19.8434 45.4095 19.8122C46.5183 19.7811 47.6115 20.0794 48.5507 20.6695C49.49 21.2596 50.2331 22.1149 50.6863 23.1274C51.1394 24.1398 51.2822 25.2639 51.0965 26.3575C50.9108 27.451 50.405 28.465 49.6431 29.2711C48.8811 30.0772 47.8973 30.6393 46.8159 30.8863C46.0978 31.0503 45.3544 31.0713 44.6282 30.948C43.902 30.8247 43.2071 30.5595 42.5834 30.1677C41.9597 29.7758 41.4193 29.2649 40.993 28.6642C40.5667 28.0634 40.263 27.3846 40.0991 26.6664ZM44.8193 22.1381C44.1703 22.2861 43.5799 22.6233 43.1226 23.1069C42.6653 23.5905 42.3617 24.1989 42.2502 24.8551C42.1387 25.5113 42.2242 26.1858 42.4961 26.7933C42.7679 27.4009 43.2138 27.9142 43.7774 28.2683C44.341 28.6224 44.9969 28.8014 45.6622 28.7827C46.3275 28.7641 46.9724 28.5485 47.5152 28.1633C48.058 27.7781 48.4744 27.2406 48.7117 26.6188C48.949 25.9969 48.9966 25.3187 48.8484 24.6698C48.7501 24.2389 48.5678 23.8316 48.312 23.4712C48.0562 23.1107 47.732 22.8042 47.3577 22.5691C46.9834 22.334 46.5665 22.1749 46.1308 22.101C45.695 22.027 45.2501 22.0396 44.8193 22.1381Z" fill="#0F242B"/>
<path d="M34.0306 19.0557C33.0312 18.5744 32.1969 17.8075 31.6333 16.852C31.0697 15.8966 30.8021 14.7955 30.8643 13.6879C30.9265 12.5804 31.3158 11.5161 31.9828 10.6298C32.6499 9.7435 33.5648 9.0749 34.6119 8.70857C35.6589 8.34224 36.7911 8.29464 37.8652 8.57178C38.9394 8.84891 39.9072 9.43835 40.6463 10.2655C41.3854 11.0927 41.8626 12.1205 42.0176 13.2189C42.1726 14.3174 41.9983 15.4371 41.5169 16.4365C40.8715 17.7765 39.7201 18.8052 38.3162 19.2964C36.9123 19.7876 35.3707 19.701 34.0306 19.0557ZM33.4271 12.543C33.1376 13.1426 33.0325 13.8147 33.1251 14.4741C33.2176 15.1335 33.5038 15.7506 33.9473 16.2474C34.3907 16.7441 34.9716 17.0981 35.6163 17.2645C36.2611 17.431 36.9407 17.4024 37.5692 17.1824C38.1977 16.9625 38.7468 16.561 39.147 16.0288C39.5472 15.4966 39.7806 14.8576 39.8175 14.1928C39.8544 13.5279 39.6932 12.8671 39.3544 12.2938C39.0156 11.7206 38.5143 11.2608 37.914 10.9726C37.1106 10.5869 36.187 10.5356 35.3458 10.83C34.5047 11.1244 33.8146 11.7405 33.4271 12.543Z" fill="#0F242B"/>
<path d="M16.8101 16.4365C16.3287 15.4371 16.1544 14.3174 16.3094 13.2189C16.4644 12.1205 16.9416 11.0927 17.6807 10.2655C18.4198 9.43835 19.3876 8.84891 20.4618 8.57178C21.5359 8.29464 22.6681 8.34224 23.7151 8.70857C24.7622 9.0749 25.6771 9.7435 26.3442 10.6298C27.0112 11.5161 27.4005 12.5804 27.4627 13.6879C27.5249 14.7955 27.2573 15.8966 26.6937 16.852C26.1301 17.8075 25.2958 18.5744 24.2964 19.0557C22.956 19.6988 21.4152 19.7843 20.0119 19.2933C18.6085 18.8024 17.4571 17.775 16.8101 16.4365ZM18.8291 15.4628C19.1181 16.0624 19.5784 16.5628 20.1517 16.9008C20.7251 17.2387 21.3858 17.3991 22.0503 17.3616C22.7148 17.324 23.3533 17.0903 23.8849 16.6899C24.4166 16.2895 24.8176 15.7405 25.0372 15.1122C25.2568 14.4839 25.2852 13.8046 25.1188 13.1602C24.9523 12.5158 24.5985 11.9352 24.1021 11.4919C23.6057 11.0485 22.989 10.7624 22.3299 10.6695C21.6709 10.5767 20.9991 10.6814 20.3995 10.9703C20.0015 11.1622 19.645 11.4306 19.3507 11.7602C19.0563 12.0898 18.8298 12.4742 18.6839 12.8913C18.5381 13.3085 18.4759 13.7503 18.5008 14.1915C18.5257 14.6327 18.6373 15.0647 18.8291 15.4628Z" fill="#0F242B"/>
<path d="M11.5111 30.8863C10.4297 30.6393 9.44586 30.0772 8.68393 29.2711C7.92199 28.465 7.4162 27.451 7.23052 26.3575C7.04483 25.2639 7.18758 24.1398 7.64072 23.1274C8.09386 22.1149 8.83704 21.2596 9.77629 20.6695C10.7155 20.0794 11.8087 19.7811 12.9175 19.8122C14.0262 19.8434 15.1009 20.2026 16.0055 20.8445C16.9102 21.4864 17.6041 22.3821 17.9997 23.4184C18.3953 24.4547 18.4747 25.585 18.2279 26.6664C18.064 27.3846 17.7603 28.0634 17.334 28.6642C16.9077 29.2649 16.3673 29.7758 15.7436 30.1677C15.1199 30.5595 14.425 30.8247 13.6988 30.948C12.9726 31.0713 12.2292 31.0503 11.5111 30.8863ZM9.47968 24.6687C9.33129 25.3175 9.37866 25.9959 9.61581 26.6178C9.85296 27.2397 10.2692 27.7774 10.812 28.1627C11.3547 28.5481 11.9995 28.7638 12.6649 28.7827C13.3302 28.8015 13.9862 28.6226 14.5499 28.2686C15.1136 27.9146 15.5596 27.4013 15.8316 26.7938C16.1035 26.1863 16.1892 25.5117 16.0778 24.8555C15.9663 24.1993 15.6628 23.5908 15.2055 23.1071C14.7483 22.6234 14.1578 22.2862 13.5089 22.1381C12.639 21.9396 11.7259 22.0946 10.9703 22.5692C10.2148 23.0437 9.67858 23.7989 9.47968 24.6687Z" fill="#0F242B"/>
<path d="M11.6232 43.1512C10.9316 42.284 10.5126 41.2311 10.4193 40.1258C10.326 39.0205 10.5625 37.9123 11.099 36.9415C11.6355 35.9706 12.4478 35.1806 13.4333 34.6713C14.4187 34.1621 15.5331 33.9566 16.6354 34.0806C17.7376 34.2047 18.7784 34.6529 19.626 35.3684C20.4736 36.084 21.0899 37.0348 21.3972 38.1007C21.7044 39.1665 21.6886 40.2996 21.3519 41.3565C21.0152 42.4134 20.3727 43.3467 19.5055 44.0384C18.3416 44.9635 16.8585 45.3895 15.3811 45.2232C13.9037 45.0569 12.5524 44.3118 11.6232 43.1512ZM13.9093 37.0221C13.2109 37.5787 12.7623 38.39 12.662 39.2774C12.5618 40.1648 12.8182 41.0557 13.3748 41.7541C13.9314 42.4524 14.7427 42.9011 15.6301 43.0013C16.5175 43.1016 17.4084 42.8452 18.1067 42.2886C18.46 42.0157 18.7554 41.6753 18.9759 41.2872C19.1963 40.8991 19.3373 40.471 19.3907 40.0279C19.4441 39.5847 19.4088 39.1354 19.2869 38.706C19.165 38.2766 18.9588 37.8758 18.6805 37.5269C18.4022 37.1779 18.0572 36.8879 17.6657 36.6735C17.2742 36.4592 16.8439 36.3249 16.4 36.2784C15.9561 36.232 15.5073 36.2743 15.0799 36.4029C14.6525 36.5316 14.255 36.744 13.9104 37.0277L13.9093 37.0221Z" fill="#0F242B"/>
<path d="M27.5201 57.158C22.2064 56.8447 17.0916 55.0255 12.7734 51.913C8.45524 48.8005 5.11212 44.5233 3.13472 39.5813C1.15731 34.6393 0.627312 29.2365 1.60665 24.0044C2.58599 18.7723 5.03421 13.927 8.66522 10.0347C12.2962 6.14243 16.96 3.36397 22.1116 2.02402C27.2631 0.684071 32.6896 0.837986 37.757 2.46778C42.8243 4.09757 47.3231 7.13592 50.7276 11.2277C54.1322 15.3196 56.3018 20.2959 56.983 25.5751C57.1779 27.0041 57.0638 28.4583 56.6485 29.8395C56.2332 31.2206 55.5263 32.4966 54.5756 33.5812C53.6249 34.6657 52.4525 35.5337 51.1377 36.1263C49.8228 36.719 48.396 37.0225 46.9538 37.0165H34.7731C33.5831 37.0165 32.4419 37.4893 31.6004 38.3307C30.759 39.1721 30.2862 40.3134 30.2862 41.5034C30.2862 42.6934 30.759 43.8346 31.6004 44.6761C32.4419 45.5175 33.5831 45.9902 34.7731 45.9902C36.0516 45.9891 37.2868 46.4536 38.2478 47.2969C39.2088 48.1402 39.8298 49.3046 39.9947 50.5724C40.1597 51.8403 39.8572 53.1248 39.144 54.1859C38.4307 55.247 37.3554 56.0121 36.1192 56.338C33.3119 57.0512 30.4116 57.3277 27.5201 57.158ZM11.1891 10.6563C7.59809 14.1437 5.09917 18.6004 3.99693 23.4833C2.8947 28.3661 3.23674 33.4642 4.98139 38.156C6.72603 42.8479 9.7979 46.9309 13.8226 49.9073C17.8473 52.8838 22.6509 54.6251 27.648 54.9191C30.3087 55.0725 32.9772 54.8172 35.5605 54.1619C36.2779 54.0055 36.9075 53.579 37.3187 52.9708C37.7299 52.3626 37.8913 51.6194 37.7692 50.8955C37.7071 50.152 37.3614 49.4608 36.8036 48.9652C36.2458 48.4697 35.5188 48.2077 34.7731 48.2337C32.9881 48.2337 31.2762 47.5246 30.0141 46.2624C28.7519 45.0002 28.0428 43.2884 28.0428 41.5034C28.0428 39.7184 28.7519 38.0065 30.0141 36.7444C31.2762 35.4822 32.9881 34.7731 34.7731 34.7731H46.9549C48.0782 34.7788 49.1895 34.5429 50.2137 34.0814C51.2378 33.6199 52.1507 32.9437 52.8906 32.0985C53.6305 31.2533 54.18 30.2589 54.5019 29.1827C54.8238 28.1065 54.9106 26.9737 54.7564 25.8611C54.1442 21.1105 52.2215 16.6241 49.2037 12.9044C46.1859 9.18466 42.1921 6.37853 37.6697 4.80022C33.1473 3.22191 28.2748 2.93376 23.5978 3.96804C18.9209 5.00232 14.6243 7.31818 11.1891 10.6563Z" fill="#0F242B"/>
</svg>
