<svg width="72" height="72" viewBox="0 0 72 72" fill="none" xmlns="http://www.w3.org/2000/svg">
<g clip-path="url(#clip0_1416_3625)">
<path d="M68.425 30.2864H32.53C31.6378 30.2874 30.7824 30.6422 30.1515 31.2731C29.5206 31.904 29.1658 32.7594 29.1648 33.6516V57.8649L39.5889 47.4408C39.6931 47.3366 39.8167 47.254 39.9528 47.1976C40.0889 47.1412 40.2347 47.1122 40.382 47.1122C40.5293 47.1122 40.6752 47.1412 40.8113 47.1976C40.9473 47.254 41.071 47.3366 41.1751 47.4408L50.4775 56.7432L61.2302 45.9905H57.2078C56.9103 45.9905 56.625 45.8723 56.4146 45.6619C56.2042 45.4516 56.086 45.1662 56.086 44.8688C56.086 44.5713 56.2042 44.2859 56.4146 44.0756C56.625 43.8652 56.9103 43.747 57.2078 43.747H63.9381C64.2352 43.7483 64.5198 43.8668 64.7299 44.0769C64.94 44.287 65.0586 44.5716 65.0598 44.8688V51.5991C65.0598 51.8966 64.9416 52.1819 64.7313 52.3922C64.5209 52.6026 64.2356 52.7208 63.9381 52.7208C63.6406 52.7208 63.3553 52.6026 63.1449 52.3922C62.9345 52.1819 62.8164 51.8966 62.8164 51.5991V47.5766L51.2705 59.1224C51.1664 59.2266 51.0427 59.3093 50.9067 59.3657C50.7706 59.422 50.6247 59.4511 50.4774 59.4511C50.3301 59.4511 50.1843 59.422 50.0482 59.3657C49.9121 59.3093 49.7885 59.2266 49.6843 59.1224L40.382 49.8201L29.1648 61.0373V68.4248C29.1658 69.317 29.5206 70.1724 30.1515 70.8033C30.7824 71.4342 31.6378 71.789 32.53 71.79H68.425C69.3171 71.789 70.1725 71.4342 70.8034 70.8033C71.4343 70.1724 71.7891 69.317 71.7901 68.4248V33.6516C71.7891 32.7594 71.4343 31.904 70.8034 31.2731C70.1725 30.6422 69.3171 30.2874 68.425 30.2864ZM69.5467 68.4248C69.5465 68.7223 69.4282 69.0075 69.2179 69.2178C69.0076 69.4281 68.7224 69.5464 68.425 69.5466H32.53C32.2325 69.5464 31.9473 69.4281 31.737 69.2178C31.5267 69.0075 31.4084 68.7223 31.4082 68.4248V67.3031H69.5467V68.4248Z" fill="#4AB4BF"/>
<path d="M32.5537 38.889C35.1411 37.4902 37.1872 35.2712 38.3685 32.5826C39.5499 29.8941 39.799 26.8895 39.0766 24.0439C38.3542 21.1983 36.7014 18.6741 34.3796 16.8703C32.0578 15.0665 29.1995 14.0861 26.2565 14.0841C25.0134 14.0844 23.7767 14.2622 22.5841 14.6121C22.3025 13.5077 21.7391 12.4948 20.9486 11.672C20.1582 10.8493 19.1676 10.2446 18.0733 9.91706C16.979 9.58946 15.8184 9.55005 14.7043 9.80265C13.5902 10.0553 12.5607 10.5913 11.716 11.3585C10.8712 12.1258 10.24 13.0981 9.88386 14.1808C9.52768 15.2636 9.45864 16.4199 9.68346 17.5372C9.90829 18.6545 10.4193 19.6946 11.1668 20.5564C11.9143 21.4183 12.8727 22.0724 13.9489 22.4551C12.767 25.454 12.7258 28.7805 13.8329 31.8077C14.94 34.8348 17.1191 37.3535 19.9593 38.889C14.8561 40.0605 10.3016 42.9224 7.0389 47.0077C3.77619 51.0931 1.99788 56.1608 1.99414 61.3839C1.99414 61.6756 2.11033 61.9554 2.31715 62.1617C2.52397 62.368 2.80449 62.4839 3.09698 62.4839H49.416C49.7085 62.4839 49.989 62.368 50.1959 62.1617C50.4027 61.9554 50.5189 61.6756 50.5189 61.3839C50.5151 56.1608 48.7368 51.0931 45.4741 47.0077C42.2114 42.9224 37.6569 40.0605 32.5537 38.889ZM26.2565 16.2841C28.4014 16.2852 30.4994 16.9101 32.2937 18.0824C34.0879 19.2546 35.5005 20.9233 36.3585 22.8841H25.1537C24.2454 22.8873 23.3455 22.71 22.5067 22.3624C21.6679 22.0149 20.9069 21.5042 20.2681 20.8601L18.7021 19.2981C20.7375 17.3611 23.4433 16.2816 26.2565 16.2841ZM11.7873 16.2841C11.8126 15.2111 12.2302 14.1842 12.9616 13.3969C13.693 12.6096 14.6877 12.1161 15.7585 12.0093C16.8293 11.9025 17.9022 12.1898 18.7754 12.8171C19.6487 13.4443 20.2619 14.3683 20.4997 15.4151C18.2164 16.5389 16.303 18.2908 14.9855 20.4641C14.0723 20.2036 13.2678 19.6561 12.6916 18.903C12.1153 18.1499 11.7982 17.2314 11.7873 16.2841ZM15.2282 27.284C15.2275 25.0181 15.9328 22.8079 17.2463 20.9591L18.7131 22.4221C19.5581 23.2668 20.562 23.9368 21.6673 24.3936C22.7725 24.8504 23.9573 25.0851 25.1537 25.0841H37.0643C37.2102 25.8084 37.2841 26.5453 37.2848 27.284C37.2848 30.2014 36.1229 32.9993 34.0547 35.0622C31.9865 37.1251 29.1814 38.284 26.2565 38.284C23.3316 38.284 20.5265 37.1251 18.4583 35.0622C16.3901 32.9993 15.2282 30.2014 15.2282 27.284ZM4.19981 60.2839C4.48251 54.9337 6.81433 49.8962 10.7137 46.2115C14.6131 42.5269 19.7823 40.4766 25.1537 40.484H27.3593C32.7307 40.4766 37.8999 42.5269 41.7993 46.2115C45.6987 49.8962 48.0305 54.9337 48.3132 60.2839H4.19981Z" fill="#0F242B"/>
</g>
<defs>
<clipPath id="clip0_1416_3625">
<rect width="71.79" height="71.79" fill="white"/>
</clipPath>
</defs>
</svg>
