<svg width="13" height="12" viewBox="0 0 13 12" fill="none" xmlns="http://www.w3.org/2000/svg">
<g clip-path="url(#clip0_1780_2251)">
<path d="M12.5 6C12.5 7.5913 11.8679 9.11742 10.7426 10.2426C9.61742 11.3679 8.0913 12 6.5 12C4.9087 12 3.38258 11.3679 2.25736 10.2426C1.13214 9.11742 0.5 7.5913 0.5 6C0.5 4.4087 1.13214 2.88258 2.25736 1.75736C3.38258 0.632141 4.9087 0 6.5 0C8.0913 0 9.61742 0.632141 10.7426 1.75736C11.8679 2.88258 12.5 4.4087 12.5 6ZM4.5155 3.4845C4.44509 3.41408 4.34958 3.37453 4.25 3.37453C4.15042 3.37453 4.05491 3.41408 3.9845 3.4845C3.91408 3.55491 3.87453 3.65042 3.87453 3.75C3.87453 3.84958 3.91408 3.94509 3.9845 4.0155L5.96975 6L3.9845 7.9845C3.94963 8.01937 3.92198 8.06076 3.90311 8.10631C3.88424 8.15187 3.87453 8.20069 3.87453 8.25C3.87453 8.29931 3.88424 8.34813 3.90311 8.39369C3.92198 8.43924 3.94963 8.48063 3.9845 8.5155C4.05491 8.58591 4.15042 8.62547 4.25 8.62547C4.29931 8.62547 4.34813 8.61576 4.39369 8.59689C4.43924 8.57802 4.48063 8.55037 4.5155 8.5155L6.5 6.53025L8.4845 8.5155C8.51937 8.55037 8.56076 8.57802 8.60631 8.59689C8.65187 8.61576 8.70069 8.62547 8.75 8.62547C8.79931 8.62547 8.84813 8.61576 8.89369 8.59689C8.93924 8.57802 8.98063 8.55037 9.0155 8.5155C9.05037 8.48063 9.07802 8.43924 9.09689 8.39369C9.11576 8.34813 9.12547 8.29931 9.12547 8.25C9.12547 8.20069 9.11576 8.15187 9.09689 8.10631C9.07802 8.06076 9.05037 8.01937 9.0155 7.9845L7.03025 6L9.0155 4.0155C9.05037 3.98063 9.07802 3.93924 9.09689 3.89369C9.11576 3.84813 9.12547 3.79931 9.12547 3.75C9.12547 3.70069 9.11576 3.65187 9.09689 3.60631C9.07802 3.56076 9.05037 3.51937 9.0155 3.4845C8.98063 3.44963 8.93924 3.42198 8.89369 3.40311C8.84813 3.38424 8.79931 3.37453 8.75 3.37453C8.70069 3.37453 8.65187 3.38424 8.60631 3.40311C8.56076 3.42198 8.51937 3.44963 8.4845 3.4845L6.5 5.46975L4.5155 3.4845Z" fill="#DD3333"/>
<path d="M6.5 0C5.31331 0 4.15328 0.351894 3.16658 1.01118C2.17989 1.67047 1.41085 2.60754 0.956725 3.7039C0.5026 4.80025 0.38378 6.00665 0.615291 7.17054C0.846802 8.33443 1.41825 9.40352 2.25736 10.2426C3.09648 11.0818 4.16557 11.6532 5.32946 11.8847C6.49335 12.1162 7.69975 11.9974 8.7961 11.5433C9.89246 11.0891 10.8295 10.3201 11.4888 9.33342C12.1481 8.34672 12.5 7.18669 12.5 6C12.4983 4.40922 11.8656 2.88407 10.7408 1.75921C9.61593 0.63436 8.09078 0.0016799 6.5 0ZM8.67269 7.51961C8.71558 7.5625 8.74959 7.6134 8.7728 7.66943C8.79601 7.72546 8.80795 7.78551 8.80795 7.84615C8.80795 7.9068 8.79601 7.96685 8.7728 8.02287C8.74959 8.0789 8.71558 8.12981 8.67269 8.17269C8.62981 8.21557 8.5789 8.24959 8.52288 8.27279C8.46685 8.296 8.4068 8.30795 8.34616 8.30795C8.28551 8.30795 8.22546 8.296 8.16943 8.27279C8.11341 8.24959 8.0625 8.21557 8.01962 8.17269L6.5 6.6525L4.98039 8.17269C4.93751 8.21557 4.8866 8.24959 4.83057 8.27279C4.77454 8.296 4.71449 8.30795 4.65385 8.30795C4.5932 8.30795 4.53315 8.296 4.47713 8.27279C4.4211 8.24959 4.37019 8.21557 4.32731 8.17269C4.28443 8.12981 4.25041 8.0789 4.2272 8.02287C4.204 7.96685 4.19205 7.9068 4.19205 7.84615C4.19205 7.78551 4.204 7.72546 4.2272 7.66943C4.25041 7.6134 4.28443 7.5625 4.32731 7.51961L5.8475 6L4.32731 4.48038C4.24071 4.39378 4.19205 4.27632 4.19205 4.15385C4.19205 4.03137 4.24071 3.91391 4.32731 3.82731C4.41391 3.7407 4.53137 3.69205 4.65385 3.69205C4.77632 3.69205 4.89378 3.7407 4.98039 3.82731L6.5 5.3475L8.01962 3.82731C8.0625 3.78443 8.11341 3.75041 8.16943 3.7272C8.22546 3.70399 8.28551 3.69205 8.34616 3.69205C8.4068 3.69205 8.46685 3.70399 8.52288 3.7272C8.5789 3.75041 8.62981 3.78443 8.67269 3.82731C8.71558 3.87019 8.74959 3.9211 8.7728 3.97712C8.79601 4.03315 8.80795 4.0932 8.80795 4.15385C8.80795 4.21449 8.79601 4.27454 8.7728 4.33057C8.74959 4.38659 8.71558 4.4375 8.67269 4.48038L7.1525 6L8.67269 7.51961Z" fill="#DD3333"/>
</g>
<defs>
<clipPath id="clip0_1780_2251">
<rect width="12" height="12" fill="white" transform="translate(0.5)"/>
</clipPath>
</defs>
</svg>
