<svg width="179" height="188" viewBox="0 0 179 188" fill="none" xmlns="http://www.w3.org/2000/svg">
<g clip-path="url(#clip0_1082_9984)">
<path d="M94.3004 76.2933C94.4401 75.4913 95.2596 75.431 95.7713 75.4295C99.981 75.4188 104.192 75.4608 108.399 75.6004C109.78 75.6462 110.907 75.3394 111.641 74.1879C112.355 73.0693 113.213 72.9922 114.367 73.376C115.165 73.6408 115.291 73.6736 115.811 73.8285C117.159 74.2307 117.521 74.5634 117.366 76.1758C117.128 78.6443 116.746 81.1113 116.427 83.6608C116.29 84.7543 115.352 85.5708 114.249 85.5548L103.468 85.3983C102.274 85.3808 101.291 86.3346 101.274 87.5281L101.258 88.6414C101.242 89.7715 102.099 90.7238 103.225 90.8253C104.686 90.9573 106.148 91.0909 107.592 91.3381C109.537 91.6723 111.53 92.0409 113.338 92.7902C117.572 94.5446 119.551 97.9876 119.255 102.526C119.074 113.686 110.717 118.481 102.162 118.887C98.9377 119.04 95.8301 118.658 92.9104 117.22C91.9053 116.726 91.4532 115.536 91.8641 114.494C92.666 112.458 93.4358 110.434 94.418 108.52C95.1221 107.146 96.6129 107.908 97.7371 108.172C100.831 108.923 100.98 108.895 103.739 109.401C103.816 109.415 105.178 109.61 105.257 109.615C105.739 109.647 107.113 109.705 107.485 109.661C109.003 109.481 110.015 108.548 110.323 106.955C110.76 104.705 110.036 103.656 109.427 102.961C108.531 101.814 106.706 101.539 105.19 101.292C102.226 100.814 97.1071 100.602 94.8907 100.363C94.2675 100.296 94.0911 100.121 94.0896 98.9574" fill="#4AB4BF"/>
<path d="M178.294 101.099C177.679 106.671 173.685 110.173 167.384 110.886C162.489 111.439 157.758 110.602 153.045 109.408C152.169 109.186 151.995 108.819 152.096 107.986C152.356 105.843 152.468 103.681 152.764 101.543C152.84 100.991 153.113 100.182 153.991 99.9875C154.921 99.7807 156.026 99.7426 157.033 100.084C157.99 100.387 158.35 101.304 158.874 102.04C160.876 104.845 165.203 104.902 166.644 104.312C167.915 103.79 167.88 102.274 166.913 101.37C166.178 100.683 165.269 100.162 164.39 99.6487C161.889 98.1889 159.268 96.9138 156.873 95.3007C153.742 93.1923 152.041 90.2674 152.574 86.2971C153.092 82.4383 155.208 79.7667 158.684 78.3001C164.66 75.7774 170.406 76.9861 176.357 78.8968C177.149 79.1509 177.174 79.9048 177.156 80.3894C177.08 82.5459 176.909 84.7031 176.664 86.8473C176.581 87.4952 176.64 87.895 176.086 88.1751C175.953 88.243 175.807 88.2811 175.659 88.3056C174.707 88.4643 173.569 88.6924 172.824 88.14C171.904 87.4585 171.33 86.5268 170.983 85.9522C169.117 82.8686 165.819 81.7294 164.095 82.8328C162.832 83.6416 162.345 84.5489 162.514 85.5066C162.658 86.32 163.548 87.2907 164.447 87.8553C166.705 89.2731 169.123 90.433 171.438 91.7646C172.714 92.4987 173.935 93.3388 175.139 94.1896C177.468 95.8333 178.529 98.0958 178.293 101.099L178.294 101.099Z" fill="#4AB4BF"/>
<path d="M131.76 109.557C127.622 107.873 126.382 104.484 126.295 100.597C126.187 95.7709 126.361 90.9391 126.414 86.1095C126.42 85.493 126.431 84.8764 126.443 84.0584C124.963 84.037 123.577 84.0172 122.242 83.9973C121.714 81.2068 122.035 79.0595 124.443 77.3006C127.048 75.3982 129.463 73.1838 131.711 70.864C133.41 69.112 135.131 69.2524 137.213 69.9224C137.181 72.1338 137.148 74.3368 137.113 76.7924C140.646 76.8435 144.069 76.8931 147.574 76.9435C147.537 79.5013 147.504 81.8065 147.466 84.3461C144.026 84.2965 140.603 84.2469 137.107 84.1957C137.032 89.3541 136.837 94.2829 136.945 99.2047C136.995 101.505 138.628 102.426 141.37 102.239C142.22 102.181 143.07 102.123 143.92 102.047C144.762 101.972 145.602 101.874 146.597 101.77C146.816 103.663 147.075 105.505 147.204 107.355C147.23 107.711 146.834 108.309 146.493 108.446C141.75 110.343 136.912 111.276 131.76 109.557H131.76Z" fill="#4AB4BF"/>
<path d="M119.277 0L140.571 8.49076L128.564 28.1988L165.445 30.1515L179 53.2643L111.371 52.7538L96.7986 35.4121L119.277 0Z" fill="#4AB4BF"/>
<path d="M30.4658 23.1274L49.0397 9.69723L59.2782 30.3782L80.6641 0.29306L107.459 1.21944L70.8395 58.0298L48.379 61.05L30.4658 23.1274Z" fill="#4AB4BF"/>
<path d="M1.73595 110.974L0 88.1316L22.9958 90.2362L8.52625 56.2838L23.338 33.9539L52.6292 94.8605L43.4522 115.565L1.73595 110.974Z" fill="#4AB4BF"/>
<path d="M61.3173 182.897L41.1748 171.955L55.4259 153.801L19.0328 147.513L8.30322 122.963L75.3989 131.445L87.8217 150.383L61.3173 182.897Z" fill="#4AB4BF"/>
<path d="M153.691 171.444L133.439 182.183L126.156 160.288L100.818 187.136L74.4075 182.523L118.526 131.307L141.189 131.413L153.691 171.444Z" fill="#4AB4BF"/>
</g>
<defs>
<clipPath id="clip0_1082_9984">
<rect width="179" height="187.136" fill="white"/>
</clipPath>
</defs>
</svg>
