<svg width="21" height="21" viewBox="0 0 21 21" fill="none" xmlns="http://www.w3.org/2000/svg">
<rect x="0.5" y="0.5" width="20" height="20" rx="4" fill="#4AB4BF"/>
<g clip-path="url(#clip0_1176_23733)">
<path d="M10.8752 9.46709C10.8862 9.40437 10.9502 9.39965 10.9903 9.39953C11.3195 9.3987 11.6489 9.40198 11.9779 9.4129C12.0859 9.41648 12.1741 9.39249 12.2315 9.30243C12.2873 9.21494 12.3544 9.20891 12.4447 9.23893C12.5071 9.25964 12.517 9.26221 12.5576 9.27432C12.6631 9.30577 12.6913 9.3318 12.6792 9.4579C12.6606 9.65098 12.6308 9.84393 12.6058 10.0433C12.5951 10.1288 12.5217 10.1927 12.4354 10.1915L11.5923 10.1792C11.4988 10.1778 11.422 10.2525 11.4206 10.3458L11.4194 10.4329C11.4181 10.5213 11.4852 10.5957 11.5733 10.6037C11.6875 10.614 11.8019 10.6244 11.9148 10.6438C12.0669 10.6699 12.2228 10.6988 12.3642 10.7574C12.6953 10.8946 12.8501 11.1639 12.827 11.5188C12.8128 12.3917 12.1592 12.7667 11.4901 12.7984C11.2379 12.8104 10.9949 12.7805 10.7665 12.6681C10.6879 12.6294 10.6525 12.5364 10.6847 12.4549C10.7474 12.2956 10.8076 12.1373 10.8844 11.9876C10.9395 11.8802 11.0561 11.9398 11.144 11.9604C11.386 12.0192 11.3976 12.017 11.6134 12.0565C11.6195 12.0577 11.726 12.0729 11.7322 12.0733C11.7698 12.0758 11.8774 12.0803 11.9064 12.0769C12.0251 12.0628 12.1043 11.9898 12.1284 11.8652C12.1626 11.6892 12.106 11.6072 12.0583 11.5529C11.9882 11.4632 11.8455 11.4416 11.7269 11.4223C11.4951 11.3849 11.0947 11.3683 10.9214 11.3496C10.8727 11.3444 10.8589 11.3307 10.8587 11.2397" fill="white"/>
<path d="M17.4446 11.4071C17.3964 11.843 17.0841 12.1169 16.5912 12.1726C16.2084 12.2159 15.8384 12.1504 15.4698 12.057C15.4013 12.0396 15.3876 12.0109 15.3956 11.9458C15.4159 11.7782 15.4247 11.6091 15.4478 11.4419C15.4538 11.3987 15.4751 11.3354 15.5438 11.3202C15.6165 11.3041 15.7029 11.3011 15.7817 11.3278C15.8565 11.3515 15.8847 11.4232 15.9257 11.4808C16.0823 11.7002 16.4207 11.7046 16.5334 11.6584C16.6328 11.6176 16.6301 11.499 16.5545 11.4284C16.4969 11.3746 16.4258 11.3339 16.3571 11.2937C16.1615 11.1796 15.9565 11.0798 15.7692 10.9537C15.5243 10.7888 15.3913 10.56 15.433 10.2495C15.4735 9.94766 15.639 9.73872 15.9108 9.62401C16.3782 9.4267 16.8277 9.52123 17.2931 9.67068C17.3551 9.69055 17.357 9.74952 17.3556 9.78742C17.3496 9.95608 17.3362 10.1248 17.3171 10.2925C17.3106 10.3432 17.3152 10.3744 17.2719 10.3964C17.2615 10.4017 17.25 10.4046 17.2385 10.4066C17.164 10.419 17.075 10.4368 17.0167 10.3936C16.9448 10.3403 16.8999 10.2674 16.8728 10.2225C16.7268 9.98132 16.4689 9.89222 16.334 9.97852C16.2352 10.0418 16.1971 10.1127 16.2104 10.1876C16.2217 10.2513 16.2913 10.3272 16.3616 10.3713C16.5381 10.4822 16.7273 10.573 16.9084 10.6771C17.0082 10.7345 17.1036 10.8002 17.1978 10.8668C17.38 10.9953 17.4629 11.1723 17.4445 11.4072L17.4446 11.4071Z" fill="white"/>
<path d="M13.8054 12.0687C13.4818 11.9369 13.3848 11.672 13.378 11.3679C13.3696 10.9904 13.3831 10.6125 13.3873 10.2348C13.3878 10.1866 13.3886 10.1384 13.3896 10.0744C13.2738 10.0727 13.1654 10.0712 13.061 10.0696C13.0197 9.85136 13.0448 9.68341 13.2332 9.54584C13.4369 9.39706 13.6258 9.22386 13.8016 9.04242C13.9345 8.90539 14.0691 8.91638 14.2319 8.96878C14.2294 9.14174 14.2269 9.31404 14.2241 9.50609C14.5004 9.51009 14.7681 9.51397 15.0423 9.51791C15.0394 9.71797 15.0368 9.89827 15.0339 10.0969C14.7648 10.093 14.497 10.0891 14.2236 10.0851C14.2178 10.4886 14.2025 10.8741 14.2109 11.259C14.2149 11.439 14.3426 11.511 14.557 11.4964C14.6236 11.4918 14.69 11.4872 14.7565 11.4813C14.8223 11.4754 14.8881 11.4678 14.9659 11.4597C14.983 11.6077 15.0032 11.7518 15.0134 11.8965C15.0153 11.9243 14.9844 11.9711 14.9577 11.9818C14.5868 12.1302 14.2084 12.2031 13.8055 12.0687H13.8054Z" fill="white"/>
<path d="M12.8289 3.5L14.4943 4.16408L13.5552 5.70549L16.4398 5.85822L17.5 7.66593L12.2106 7.626L11.0708 6.26966L12.8289 3.5Z" fill="white"/>
<path d="M5.88281 5.30881L7.33551 4.25841L8.13629 5.87591L9.80893 3.52289L11.9047 3.59534L9.04053 8.03861L7.28385 8.27483L5.88281 5.30881Z" fill="white"/>
<path d="M3.63577 12.1795L3.5 10.393L5.29856 10.5576L4.16686 7.90212L5.32532 6.15564L7.61625 10.9193L6.8985 12.5386L3.63577 12.1795Z" fill="white"/>
<path d="M8.29577 17.8049L6.72037 16.949L7.83499 15.5291L4.9886 15.0373L4.14941 13.1172L9.39712 13.7806L10.3687 15.2619L8.29577 17.8049Z" fill="white"/>
<path d="M15.5207 16.909L13.9368 17.749L13.3672 16.0365L11.3854 18.1364L9.31982 17.7755L12.7704 13.7698L14.5429 13.7781L15.5207 16.909Z" fill="white"/>
</g>
<defs>
<clipPath id="clip0_1176_23733">
<rect width="14" height="14.6364" fill="white" transform="translate(3.5 3.5)"/>
</clipPath>
</defs>
</svg>
