<svg width="375" height="302" viewBox="0 0 375 302" fill="none" xmlns="http://www.w3.org/2000/svg">
<path d="M375 271.722L266.033 154.479C264.451 152.777 263.66 151.927 262.72 151.317C261.887 150.776 260.97 150.377 260.007 150.134C258.92 149.861 257.759 149.861 255.435 149.861L116.95 149.861C114.573 149.861 113.384 149.861 112.275 150.146C111.293 150.399 110.36 150.816 109.515 151.378C108.562 152.013 107.769 152.898 106.181 154.668L1.17266 271.722" stroke="url(#paint0_linear_1056_12776)" stroke-width="0.516702"/>
<path d="M-15 28L100.726 145.677C102.294 147.272 103.079 148.069 103.998 148.64C104.812 149.146 105.702 149.519 106.634 149.745C107.685 150 108.804 150 111.041 150H258.981C261.272 150 262.418 150 263.491 149.733C264.443 149.497 265.349 149.108 266.176 148.58C267.108 147.985 267.897 147.154 269.474 145.493L381 28" stroke="url(#paint1_linear_1056_12776)" stroke-width="0.516702"/>
<path d="M338.062 301.522L234.159 196.302C232.592 194.715 231.808 193.921 230.891 193.353C230.077 192.85 229.189 192.479 228.26 192.254C227.211 192 226.096 192 223.865 192L150.344 192C148.115 192 147.001 192 145.953 192.253C145.024 192.478 144.137 192.849 143.324 193.351C142.407 193.918 141.624 194.71 140.057 196.295L35.9999 301.522" stroke="url(#paint2_linear_1056_12776)" stroke-width="0.516702"/>
<g filter="url(#filter0_d_1056_12776)">
<rect x="133.861" y="202" width="1.02568" height="33.9381" rx="0.512842" transform="rotate(44.6746 133.861 202)" fill="#4AB4BF"/>
</g>
<path d="M34 4.69678L137.903 109.917C139.471 111.504 140.254 112.298 141.172 112.866C141.985 113.369 142.873 113.74 143.803 113.965C144.851 114.219 145.967 114.219 148.198 114.219H221.697C223.934 114.219 225.052 114.219 226.103 113.964C227.034 113.738 227.924 113.365 228.739 112.86C229.657 112.29 230.442 111.493 232.01 109.899L339.163 1" stroke="url(#paint3_linear_1056_12776)" stroke-width="0.516702"/>
<g filter="url(#filter1_d_1056_12776)">
<rect x="268.861" y="72" width="1.02568" height="33.9381" rx="0.512842" transform="rotate(44.6746 268.861 72)" fill="#4AB4BF"/>
</g>
<g filter="url(#filter2_d_1056_12776)">
<rect x="36" y="80" width="40" height="40" rx="20" fill="white"/>
<rect x="36.1083" y="80.1083" width="39.7833" height="39.7833" rx="19.8917" stroke="#F9FAFB" stroke-width="0.216657"/>
<path d="M67.7812 97.9688H54.7812C54.4581 97.9691 54.1483 98.0976 53.9199 98.3261C53.6914 98.5546 53.5629 98.8644 53.5625 99.1875V107.957L57.3378 104.182C57.3755 104.144 57.4203 104.114 57.4696 104.093C57.5188 104.073 57.5717 104.062 57.625 104.062C57.6784 104.062 57.7312 104.073 57.7805 104.093C57.8298 104.114 57.8745 104.144 57.9122 104.182L61.2812 107.551L65.1755 103.656H63.7188C63.611 103.656 63.5077 103.613 63.4315 103.537C63.3553 103.461 63.3125 103.358 63.3125 103.25C63.3125 103.142 63.3553 103.039 63.4315 102.963C63.5077 102.887 63.611 102.844 63.7188 102.844H66.1562C66.2639 102.844 66.3669 102.887 66.443 102.963C66.5191 103.039 66.5621 103.142 66.5625 103.25V105.688C66.5625 105.795 66.5197 105.899 66.4435 105.975C66.3673 106.051 66.264 106.094 66.1562 106.094C66.0485 106.094 65.9452 106.051 65.869 105.975C65.7928 105.899 65.75 105.795 65.75 105.688V104.231L61.5685 108.412C61.5308 108.45 61.486 108.48 61.4367 108.5C61.3874 108.521 61.3346 108.531 61.2812 108.531C61.2279 108.531 61.1751 108.521 61.1258 108.5C61.0765 108.48 61.0317 108.45 60.994 108.412L57.625 105.043L53.5625 109.106V111.781C53.5629 112.104 53.6914 112.414 53.9199 112.643C54.1483 112.871 54.4581 113 54.7812 113H67.7812C68.1044 113 68.4142 112.871 68.6426 112.643C68.8711 112.414 68.9996 112.104 69 111.781V99.1875C68.9996 98.8644 68.8711 98.5546 68.6426 98.3261C68.4142 98.0976 68.1044 97.9691 67.7812 97.9688ZM68.1875 111.781C68.1874 111.889 68.1446 111.992 68.0684 112.068C67.9923 112.145 67.889 112.187 67.7812 112.188H54.7812C54.6735 112.187 54.5702 112.145 54.4941 112.068C54.4179 111.992 54.3751 111.889 54.375 111.781V111.375H68.1875V111.781Z" fill="#4AB4BF"/>
<path d="M54.7898 101.084C55.7269 100.578 56.4679 99.7741 56.8958 98.8004C57.3236 97.8267 57.4139 96.7385 57.1522 95.7079C56.8906 94.6773 56.292 93.7632 55.4511 93.1099C54.6103 92.4566 53.5751 92.1015 52.5092 92.1008C52.059 92.1009 51.6111 92.1653 51.1792 92.292C51.0772 91.8921 50.8732 91.5252 50.5869 91.2272C50.3006 90.9293 49.9418 90.7103 49.5455 90.5917C49.1492 90.473 48.7289 90.4587 48.3254 90.5502C47.9219 90.6417 47.549 90.8358 47.2431 91.1137C46.9372 91.3916 46.7086 91.7437 46.5796 92.1359C46.4506 92.528 46.4256 92.9468 46.507 93.3514C46.5884 93.7561 46.7735 94.1328 47.0442 94.4449C47.3149 94.757 47.662 94.9939 48.0518 95.1325C47.6237 96.2186 47.6088 97.4234 48.0098 98.5197C48.4107 99.6161 49.1999 100.528 50.2286 101.084C48.3804 101.509 46.7309 102.545 45.5492 104.025C44.3676 105.504 43.7235 107.34 43.7222 109.231C43.7222 109.337 43.7642 109.438 43.8392 109.513C43.9141 109.588 44.0156 109.63 44.1216 109.63H60.8968C61.0028 109.63 61.1044 109.588 61.1793 109.513C61.2542 109.438 61.2962 109.337 61.2962 109.231C61.2949 107.34 60.6508 105.504 59.4692 104.025C58.2875 102.545 56.638 101.509 54.7898 101.084ZM52.5092 92.8976C53.286 92.898 54.0459 93.1243 54.6957 93.5489C55.3455 93.9734 55.8571 94.5778 56.1678 95.2879H52.1098C51.7808 95.289 51.4549 95.2248 51.1511 95.099C50.8473 94.9731 50.5717 94.7881 50.3404 94.5549L49.7732 93.9892C50.5104 93.2876 51.4904 92.8967 52.5092 92.8976ZM47.2689 92.8976C47.2781 92.509 47.4293 92.1371 47.6942 91.852C47.9591 91.5668 48.3194 91.3881 48.7072 91.3494C49.095 91.3107 49.4836 91.4148 49.7998 91.6419C50.1161 91.8691 50.3382 92.2038 50.4243 92.5829C49.5973 92.9899 48.9044 93.6244 48.4272 94.4114C48.0965 94.3171 47.8051 94.1188 47.5964 93.8461C47.3877 93.5733 47.2729 93.2407 47.2689 92.8976ZM48.5151 96.8814C48.5149 96.0607 48.7703 95.2603 49.246 94.5907L49.7772 95.1206C50.0833 95.4265 50.4469 95.6691 50.8471 95.8346C51.2474 96 51.6765 96.085 52.1098 96.0846H56.4234C56.4763 96.347 56.503 96.6138 56.5033 96.8814C56.5033 97.938 56.0825 98.9513 55.3335 99.6984C54.5844 100.446 53.5685 100.865 52.5092 100.865C51.4499 100.865 50.434 100.446 49.6849 99.6984C48.9359 98.9513 48.5151 97.938 48.5151 96.8814ZM44.521 108.833C44.6234 106.895 45.4679 105.071 46.8801 103.736C48.2923 102.402 50.1644 101.659 52.1098 101.662H52.9086C54.854 101.659 56.7261 102.402 58.1383 103.736C59.5505 105.071 60.395 106.895 60.4974 108.833H44.521Z" fill="#0F242B"/>
</g>
<g filter="url(#filter3_d_1056_12776)">
<rect x="61" y="232" width="40" height="40" rx="20" fill="white"/>
<rect x="61.5" y="232.5" width="39" height="39" rx="19.5" stroke="#F9FAFB"/>
<path d="M92.8598 252.556H92.2517C92.0588 251.77 91.7454 251.018 91.3224 250.328L91.7549 249.897C91.8608 249.791 91.9448 249.666 92.0021 249.528C92.0594 249.39 92.0889 249.242 92.0889 249.093C92.0889 248.944 92.0594 248.796 92.0021 248.658C91.9448 248.52 91.8608 248.395 91.7549 248.289L90.68 247.218C90.5742 247.113 90.4485 247.029 90.3101 246.972C90.1717 246.915 90.0235 246.885 89.8737 246.885C89.7239 246.885 89.5757 246.915 89.4373 246.972C89.299 247.029 89.1732 247.113 89.0674 247.218L88.6348 247.649C87.9417 247.228 87.1873 246.915 86.3985 246.723V246.117C86.3985 245.815 86.2783 245.526 86.0645 245.313C85.8506 245.1 85.5606 244.98 85.2582 244.98H83.7379C83.4355 244.98 83.1455 245.1 82.9316 245.313C82.7178 245.526 82.5977 245.815 82.5977 246.117V246.723C81.8089 246.915 81.0547 247.227 80.3617 247.649L79.9291 247.218C79.8233 247.112 79.6975 247.029 79.5592 246.971C79.4208 246.914 79.2726 246.885 79.1228 246.885C78.973 246.885 78.8248 246.914 78.6864 246.971C78.5481 247.029 78.4223 247.112 78.3165 247.218L77.2416 248.289C77.1357 248.395 77.0517 248.52 76.9944 248.658C76.9371 248.796 76.9076 248.943 76.9076 249.093C76.9076 249.242 76.9371 249.39 76.9944 249.528C77.0517 249.665 77.1357 249.791 77.2416 249.896L77.6741 250.327C77.2509 251.018 76.9374 251.77 76.7445 252.556H76.1363C75.8339 252.556 75.5439 252.676 75.3301 252.889C75.1162 253.102 74.9961 253.391 74.9961 253.693V255.208C74.9961 255.509 75.1162 255.798 75.3301 256.011C75.5439 256.224 75.8339 256.344 76.1363 256.344H76.7445C76.9373 257.13 77.2507 257.882 77.6737 258.573L77.2412 259.004C77.1353 259.109 77.0513 259.234 76.994 259.372C76.9367 259.51 76.9072 259.658 76.9072 259.807C76.9072 259.956 76.9367 260.104 76.994 260.242C77.0513 260.38 77.1353 260.505 77.2412 260.611L78.3161 261.682C78.422 261.788 78.5477 261.871 78.686 261.928C78.8244 261.986 78.9727 262.015 79.1224 262.015C79.2722 262.015 79.4205 261.986 79.5588 261.928C79.6972 261.871 79.8229 261.788 79.9288 261.682L80.3613 261.251C81.0544 261.673 81.8088 261.985 82.5977 262.178V262.784C82.5977 263.085 82.7178 263.374 82.9316 263.587C83.1455 263.8 83.4355 263.92 83.7379 263.92H85.2582C85.5606 263.92 85.8506 263.8 86.0645 263.587C86.2783 263.374 86.3985 263.085 86.3985 262.784V262.178C87.1872 261.985 87.9414 261.673 88.6345 261.251L89.067 261.682C89.1729 261.788 89.2986 261.872 89.4369 261.929C89.5753 261.986 89.7236 262.015 89.8733 262.015C90.0231 262.015 90.1714 261.986 90.3097 261.929C90.4481 261.872 90.5738 261.788 90.6797 261.682L91.7545 260.611C91.8604 260.506 91.9444 260.38 92.0017 260.243C92.0591 260.105 92.0886 259.957 92.0886 259.808C92.0886 259.658 92.0591 259.511 92.0017 259.373C91.9444 259.235 91.8604 259.11 91.7545 259.004L91.322 258.573C91.7452 257.882 92.0588 257.13 92.2517 256.344H92.8598C93.1622 256.344 93.4522 256.224 93.6661 256.011C93.8799 255.798 94 255.509 94 255.208V253.693C94 253.391 93.8799 253.102 93.6661 252.889C93.4522 252.676 93.1622 252.556 92.8598 252.556ZM80.6973 254.45C80.6973 253.701 80.9202 252.969 81.3378 252.346C81.7555 251.723 82.3491 251.237 83.0436 250.951C83.7381 250.664 84.5023 250.589 85.2396 250.735C85.9768 250.881 86.6541 251.242 87.1856 251.772C87.7172 252.301 88.0792 252.976 88.2258 253.711C88.3725 254.446 88.2972 255.208 88.0095 255.9C87.7219 256.592 87.2347 257.183 86.6097 257.6C85.9846 258.016 85.2498 258.238 84.4981 258.238C83.4904 258.237 82.5243 257.838 81.8117 257.127C81.0992 256.417 80.6984 255.454 80.6973 254.45ZM84.4981 260.511C84.3973 260.511 84.3006 260.471 84.2293 260.4C84.158 260.329 84.118 260.233 84.118 260.132C84.118 260.032 84.158 259.935 84.2293 259.864C84.3006 259.793 84.3973 259.753 84.4981 259.753C85.9088 259.752 87.2614 259.193 88.259 258.198C89.2566 257.204 89.8177 255.856 89.8192 254.45C89.8192 254.35 89.8592 254.253 89.9305 254.182C90.0018 254.111 90.0984 254.071 90.1992 254.071C90.3 254.071 90.3967 254.111 90.468 254.182C90.5393 254.253 90.5793 254.35 90.5793 254.45C90.5774 256.057 89.9361 257.597 88.796 258.734C87.656 259.87 86.1103 260.509 84.4981 260.511Z" fill="#4AB4BF"/>
<path d="M88.8323 240H69.3297C68.9771 240 68.6388 240.14 68.3895 240.388C68.1401 240.637 68 240.974 68 241.325V253.915C68 254.266 68.1401 254.603 68.3895 254.852C68.6388 255.1 68.9771 255.24 69.3297 255.24H76.8648V257.891H75.5351C75.4175 257.891 75.3048 257.937 75.2217 258.02C75.1385 258.103 75.0918 258.215 75.0918 258.332C75.0918 258.449 75.1385 258.562 75.2217 258.645C75.3048 258.728 75.4175 258.774 75.5351 258.774H82.6269C82.7445 258.774 82.8572 258.728 82.9404 258.645C83.0235 258.562 83.0702 258.449 83.0702 258.332C83.0702 258.215 83.0235 258.103 82.9404 258.02C82.8572 257.937 82.7445 257.891 82.6269 257.891H81.2972V255.24H88.8323C89.185 255.24 89.5232 255.1 89.7726 254.852C90.0219 254.603 90.162 254.266 90.162 253.915V241.325C90.162 240.974 90.0219 240.637 89.7726 240.388C89.5232 240.14 89.185 240 88.8323 240ZM80.4107 257.891H77.7513V255.24H80.4107V257.891ZM89.2755 253.915C89.2755 254.032 89.2288 254.144 89.1457 254.227C89.0626 254.31 88.9499 254.357 88.8323 254.357H69.3297C69.2122 254.357 69.0994 254.31 69.0163 254.227C68.9332 254.144 68.8865 254.032 68.8865 253.915V252.59H89.2755V253.915ZM89.2755 251.706H68.8865V241.325C68.8865 241.208 68.9332 241.096 69.0163 241.013C69.0994 240.93 69.2122 240.883 69.3297 240.883H88.8323C88.9499 240.883 89.0626 240.93 89.1457 241.013C89.2288 241.096 89.2755 241.208 89.2755 241.325V251.706Z" fill="#0F242B"/>
<path d="M83.5133 242.32C83.043 242.32 82.5921 242.506 82.2596 242.837C81.9271 243.168 81.7403 243.618 81.7403 244.087C81.7418 244.401 81.8287 244.709 81.9916 244.978L80.189 246.775L78.2861 244.879C78.203 244.796 78.0903 244.749 77.9728 244.749C77.8552 244.749 77.7425 244.796 77.6594 244.879L75.5434 246.987C75.2732 246.825 74.964 246.739 74.6485 246.737C74.2978 246.737 73.955 246.841 73.6634 247.035C73.3719 247.229 73.1446 247.505 73.0104 247.828C72.8763 248.151 72.8411 248.506 72.9096 248.849C72.978 249.191 73.1468 249.506 73.3948 249.753C73.6427 250.001 73.9586 250.169 74.3026 250.237C74.6465 250.305 75.003 250.27 75.3269 250.136C75.6509 250.003 75.9278 249.776 76.1226 249.486C76.3174 249.195 76.4214 248.853 76.4214 248.504C76.4199 248.19 76.333 247.881 76.1701 247.612L77.9728 245.816L79.8756 247.712C79.9587 247.795 80.0714 247.841 80.189 247.841C80.3065 247.841 80.4192 247.795 80.5023 247.712L82.6184 245.603C82.8885 245.765 83.1978 245.852 83.5133 245.854C83.9835 245.854 84.4344 245.667 84.7669 245.336C85.0994 245.005 85.2862 244.555 85.2862 244.087C85.2862 243.618 85.0994 243.168 84.7669 242.837C84.4344 242.506 83.9835 242.32 83.5133 242.32ZM74.6485 249.387C74.4731 249.387 74.3017 249.336 74.1559 249.239C74.0102 249.141 73.8965 249.003 73.8294 248.842C73.7624 248.681 73.7448 248.503 73.779 248.332C73.8132 248.16 73.8976 248.003 74.0216 247.879C74.1456 247.756 74.3035 247.672 74.4755 247.637C74.6475 247.603 74.8257 247.621 74.9877 247.688C75.1497 247.755 75.2881 247.868 75.3855 248.013C75.4829 248.158 75.5349 248.329 75.5349 248.504C75.5349 248.738 75.4415 248.963 75.2753 249.129C75.109 249.294 74.8836 249.387 74.6485 249.387ZM83.5133 244.97C83.3379 244.97 83.1665 244.918 83.0208 244.821C82.875 244.724 82.7614 244.586 82.6943 244.425C82.6272 244.263 82.6096 244.086 82.6438 243.914C82.678 243.743 82.7624 243.585 82.8864 243.462C83.0104 243.338 83.1684 243.254 83.3403 243.22C83.5123 243.186 83.6905 243.203 83.8525 243.27C84.0145 243.337 84.1529 243.45 84.2503 243.596C84.3478 243.741 84.3997 243.912 84.3997 244.087C84.3997 244.321 84.3063 244.546 84.1401 244.711C83.9739 244.877 83.7484 244.97 83.5133 244.97Z" fill="#0F242B"/>
</g>
<g filter="url(#filter4_d_1056_12776)">
<rect x="299" y="80" width="40" height="40" rx="20" fill="white"/>
<rect x="299.5" y="80.5" width="39" height="39" rx="19.5" stroke="#F9FAFB"/>
<g clip-path="url(#clip0_1056_12776)">
<path d="M316.91 108.616H318.674L317.796 106.289L316.91 108.616Z" fill="#4AB4BF"/>
<path d="M321.039 103.313H314.539C314.216 103.313 313.906 103.442 313.677 103.67C313.449 103.899 313.32 104.209 313.32 104.532V111.032C313.32 111.355 313.449 111.665 313.677 111.894C313.906 112.122 314.216 112.251 314.539 112.251H321.039C321.362 112.251 321.672 112.122 321.901 111.894C322.129 111.665 322.258 111.355 322.258 111.032V104.532C322.258 104.209 322.129 103.899 321.901 103.67C321.672 103.442 321.362 103.313 321.039 103.313ZM319.857 110.6C319.756 110.638 319.644 110.634 319.546 110.59C319.448 110.545 319.372 110.464 319.334 110.363L318.981 109.429H316.6L316.244 110.363C316.226 110.414 316.198 110.461 316.162 110.502C316.125 110.542 316.081 110.574 316.032 110.597C315.983 110.62 315.93 110.633 315.875 110.635C315.821 110.637 315.767 110.628 315.716 110.609C315.666 110.589 315.619 110.56 315.58 110.523C315.541 110.485 315.51 110.44 315.488 110.391C315.466 110.341 315.455 110.287 315.454 110.233C315.454 110.179 315.464 110.125 315.485 110.075L317.315 105.268C317.353 105.171 317.418 105.088 317.503 105.029C317.588 104.97 317.689 104.938 317.793 104.937C317.896 104.936 317.998 104.967 318.084 105.024C318.17 105.081 318.237 105.163 318.277 105.259L320.095 110.076C320.113 110.126 320.122 110.179 320.121 110.232C320.119 110.286 320.107 110.338 320.084 110.387C320.062 110.436 320.031 110.479 319.992 110.516C319.953 110.552 319.907 110.581 319.857 110.6Z" fill="#4AB4BF"/>
<path d="M322.592 97.4314C322.782 97.4314 322.964 97.356 323.098 97.2219C323.232 97.0877 323.307 96.9058 323.307 96.716C323.307 96.5263 323.232 96.3443 323.098 96.2101C322.964 96.076 322.782 96.0006 322.592 96.0006H321.583V97.4326L322.592 97.4314Z" fill="#4AB4BF"/>
<path d="M322.839 98.2451C322.117 98.2451 322.469 98.2451 321.583 98.2471V100.063C321.997 100.063 322.61 100.059 322.839 100.059C323.08 100.059 323.31 99.9631 323.48 99.7932C323.65 99.6233 323.745 99.3929 323.745 99.1526C323.745 98.9124 323.65 98.682 323.48 98.5121C323.31 98.3422 323.08 98.2467 322.839 98.2467V98.2451Z" fill="#4AB4BF"/>
<path d="M325.914 93.5631H319.414C319.091 93.5631 318.781 93.6915 318.552 93.9201C318.324 94.1486 318.195 94.4586 318.195 94.7819V101.282C318.195 101.605 318.324 101.915 318.552 102.144C318.781 102.372 319.091 102.501 319.414 102.501H325.914C326.237 102.501 326.547 102.372 326.776 102.144C327.004 101.915 327.133 101.605 327.133 101.282V94.7819C327.133 94.4586 327.004 94.1486 326.776 93.9201C326.547 93.6915 326.237 93.5631 325.914 93.5631ZM322.84 100.87C322.48 100.87 321.178 100.876 321.178 100.876C321.07 100.876 320.967 100.833 320.891 100.757C320.815 100.68 320.772 100.577 320.772 100.469V95.5944C320.772 95.4866 320.815 95.3833 320.891 95.3071C320.967 95.2309 321.07 95.1881 321.178 95.1881H322.594C322.886 95.1866 323.172 95.269 323.418 95.4256C323.664 95.5822 323.86 95.8063 323.982 96.0712C324.104 96.3361 324.147 96.6306 324.107 96.9195C324.066 97.2083 323.943 97.4794 323.753 97.7004C324.069 97.8979 324.312 98.1929 324.445 98.5407C324.578 98.8886 324.595 99.2704 324.492 99.6284C324.389 99.9864 324.172 100.301 323.874 100.525C323.576 100.749 323.214 100.87 322.841 100.869L322.84 100.87Z" fill="#4AB4BF"/>
<path d="M330.789 103.313H324.289C323.966 103.313 323.656 103.442 323.427 103.67C323.199 103.899 323.07 104.209 323.07 104.532V111.032C323.07 111.355 323.199 111.665 323.427 111.894C323.656 112.122 323.966 112.251 324.289 112.251H330.789C331.112 112.251 331.422 112.122 331.651 111.894C331.879 111.665 332.008 111.355 332.008 111.032V104.532C332.008 104.209 331.879 103.899 331.651 103.67C331.422 103.442 331.112 103.313 330.789 103.313ZM329.837 109.792C329.611 110.061 329.328 110.275 329.008 110.419C328.688 110.563 328.341 110.634 327.99 110.626C327.545 110.626 327.107 110.522 326.709 110.322C326.312 110.122 325.967 109.832 325.703 109.474C325.438 109.117 325.261 108.702 325.185 108.264C325.11 107.826 325.138 107.376 325.268 106.95C325.399 106.525 325.627 106.136 325.934 105.815C326.242 105.494 326.62 105.249 327.04 105.101C327.459 104.953 327.907 104.905 328.349 104.961C328.79 105.017 329.212 105.177 329.58 105.426C329.624 105.455 329.662 105.494 329.692 105.538C329.721 105.583 329.742 105.633 329.752 105.685C329.762 105.737 329.762 105.791 329.751 105.844C329.74 105.896 329.72 105.946 329.69 105.99C329.66 106.034 329.622 106.072 329.577 106.102C329.533 106.131 329.483 106.151 329.43 106.162C329.378 106.172 329.324 106.172 329.272 106.161C329.219 106.15 329.17 106.129 329.125 106.1C328.862 105.921 328.561 105.808 328.246 105.767C327.93 105.727 327.61 105.761 327.311 105.867C327.011 105.972 326.74 106.147 326.52 106.377C326.3 106.606 326.138 106.884 326.045 107.188C325.952 107.492 325.931 107.813 325.985 108.127C326.039 108.44 326.166 108.736 326.355 108.991C326.544 109.247 326.791 109.454 327.075 109.597C327.359 109.739 327.672 109.814 327.99 109.813C328.222 109.821 328.453 109.777 328.665 109.683C328.877 109.589 329.065 109.448 329.215 109.27C329.285 109.192 329.383 109.144 329.488 109.137C329.593 109.13 329.697 109.163 329.778 109.231C329.859 109.299 329.91 109.395 329.921 109.5C329.932 109.605 329.902 109.709 329.837 109.792Z" fill="#4AB4BF"/>
<path d="M325.5 89.8437H325.094V89.4375C325.094 89.1143 324.965 88.8043 324.737 88.5757C324.508 88.3472 324.198 88.2188 323.875 88.2188H318.188C317.871 88.2196 317.559 88.2947 317.277 88.438C316.995 88.5813 316.75 88.7888 316.562 89.0438C316.375 88.7888 316.13 88.5813 315.848 88.438C315.566 88.2947 315.254 88.2196 314.938 88.2188H309.25C308.927 88.2188 308.617 88.3472 308.388 88.5757C308.16 88.8043 308.031 89.1143 308.031 89.4375V89.8437H307.625C307.302 89.8437 306.992 89.9722 306.763 90.2007C306.535 90.4293 306.406 90.7393 306.406 91.0625V101.625C306.406 101.948 306.535 102.258 306.763 102.487C306.992 102.715 307.302 102.844 307.625 102.844H325.5C325.823 102.844 326.133 102.715 326.362 102.487C326.59 102.258 326.719 101.948 326.719 101.625V91.0625C326.719 90.7393 326.59 90.4293 326.362 90.2007C326.133 89.9722 325.823 89.8437 325.5 89.8437ZM316.969 90.25C316.969 89.9268 317.097 89.6168 317.326 89.3882C317.554 89.1597 317.864 89.0312 318.188 89.0312H323.875C323.983 89.0312 324.086 89.0741 324.162 89.1502C324.238 89.2264 324.281 89.3298 324.281 89.4375V100.406H316.969V90.25ZM308.844 89.4375C308.844 89.3298 308.887 89.2264 308.963 89.1502C309.039 89.0741 309.142 89.0312 309.25 89.0312H314.938C315.261 89.0312 315.571 89.1597 315.799 89.3882C316.028 89.6168 316.156 89.9268 316.156 90.25V100.406H308.844V89.4375ZM325.906 101.625C325.906 101.733 325.863 101.836 325.787 101.912C325.711 101.988 325.608 102.031 325.5 102.031H307.625C307.517 102.031 307.414 101.988 307.338 101.912C307.262 101.836 307.219 101.733 307.219 101.625V91.0625C307.219 90.9548 307.262 90.8514 307.338 90.7752C307.414 90.6991 307.517 90.6562 307.625 90.6562H308.031V100.812C308.031 100.92 308.074 101.024 308.15 101.1C308.226 101.176 308.33 101.219 308.438 101.219H324.688C324.795 101.219 324.899 101.176 324.975 101.1C325.051 101.024 325.094 100.92 325.094 100.812V90.6562H325.5C325.608 90.6562 325.711 90.6991 325.787 90.7752C325.863 90.8514 325.906 90.9548 325.906 91.0625V101.625Z" fill="#0F242B"/>
<path d="M322.656 90.25H318.594C318.486 90.25 318.383 90.2928 318.306 90.369C318.23 90.4452 318.188 90.5485 318.188 90.6562C318.188 90.764 318.23 90.8673 318.306 90.9435C318.383 91.0197 318.486 91.0625 318.594 91.0625H322.656C322.764 91.0625 322.867 91.0197 322.944 90.9435C323.02 90.8673 323.062 90.764 323.062 90.6562C323.062 90.5485 323.02 90.4452 322.944 90.369C322.867 90.2928 322.764 90.25 322.656 90.25Z" fill="#0F242B"/>
<path d="M322.711 91.9223H318.649C318.541 91.9223 318.438 91.9651 318.362 92.0413C318.285 92.1175 318.243 92.2208 318.243 92.3286C318.243 92.4363 318.285 92.5397 318.362 92.6158C318.438 92.692 318.541 92.7348 318.649 92.7348H322.711C322.819 92.7348 322.923 92.692 322.999 92.6158C323.075 92.5397 323.118 92.4363 323.118 92.3286C323.118 92.2208 323.075 92.1175 322.999 92.0413C322.923 91.9651 322.819 91.9223 322.711 91.9223Z" fill="#0F242B"/>
<path d="M314.531 92.2812H310.469C310.361 92.2812 310.258 92.3241 310.181 92.4002C310.105 92.4764 310.062 92.5798 310.062 92.6875C310.062 92.7952 310.105 92.8986 310.181 92.9748C310.258 93.0509 310.361 93.0938 310.469 93.0938H314.531C314.639 93.0938 314.742 93.0509 314.819 92.9748C314.895 92.8986 314.938 92.7952 314.938 92.6875C314.938 92.5798 314.895 92.4764 314.819 92.4002C314.742 92.3241 314.639 92.2812 314.531 92.2812Z" fill="#0F242B"/>
<path d="M314.531 90.25H310.469C310.361 90.25 310.258 90.2928 310.181 90.369C310.105 90.4452 310.062 90.5485 310.062 90.6562C310.062 90.764 310.105 90.8673 310.181 90.9435C310.258 91.0197 310.361 91.0625 310.469 91.0625H314.531C314.639 91.0625 314.742 91.0197 314.819 90.9435C314.895 90.8673 314.938 90.764 314.938 90.6562C314.938 90.5485 314.895 90.4452 314.819 90.369C314.742 90.2928 314.639 90.25 314.531 90.25Z" fill="#0F242B"/>
<path d="M314.531 94.3125H310.469C310.361 94.3125 310.258 94.3553 310.181 94.4315C310.105 94.5077 310.062 94.611 310.062 94.7188C310.062 94.8265 310.105 94.9298 310.181 95.006C310.258 95.0822 310.361 95.125 310.469 95.125H314.531C314.639 95.125 314.742 95.0822 314.819 95.006C314.895 94.9298 314.938 94.8265 314.938 94.7188C314.938 94.611 314.895 94.5077 314.819 94.4315C314.742 94.3553 314.639 94.3125 314.531 94.3125Z" fill="#0F242B"/>
<path d="M314.531 96.3438H310.469C310.361 96.3438 310.258 96.3866 310.181 96.4627C310.105 96.5389 310.062 96.6423 310.062 96.75C310.062 96.8577 310.105 96.9611 310.181 97.0373C310.258 97.1134 310.361 97.1562 310.469 97.1562H314.531C314.639 97.1562 314.742 97.1134 314.819 97.0373C314.895 96.9611 314.938 96.8577 314.938 96.75C314.938 96.6423 314.895 96.5389 314.819 96.4627C314.742 96.3866 314.639 96.3438 314.531 96.3438Z" fill="#0F242B"/>
<path d="M314.531 98.375H310.469C310.361 98.375 310.258 98.4178 310.181 98.494C310.105 98.5702 310.062 98.6735 310.062 98.7812C310.062 98.889 310.105 98.9923 310.181 99.0685C310.258 99.1447 310.361 99.1875 310.469 99.1875H314.531C314.639 99.1875 314.742 99.1447 314.819 99.0685C314.895 98.9923 314.938 98.889 314.938 98.7812C314.938 98.6735 314.895 98.5702 314.819 98.494C314.742 98.4178 314.639 98.375 314.531 98.375Z" fill="#0F242B"/>
</g>
</g>
<g filter="url(#filter5_d_1056_12776)">
<rect x="272" y="160" width="40" height="40" rx="20" fill="white"/>
<rect x="272.5" y="160.5" width="39" height="39" rx="19.5" stroke="#F9FAFB"/>
<g clip-path="url(#clip1_1056_12776)">
<path d="M302.969 188.938C302.857 188.939 302.749 188.898 302.667 188.822C302.585 188.747 302.534 188.643 302.526 188.531L302.156 180.569L303.416 179.305C303.53 179.193 303.622 179.059 303.684 178.911C303.747 178.763 303.78 178.605 303.781 178.444V173.906C303.781 173.583 303.653 173.273 303.424 173.044C303.196 172.816 302.886 172.688 302.562 172.688H301.75C301.427 172.688 301.117 172.816 300.888 173.044C300.66 173.273 300.531 173.583 300.531 173.906V175.125H298.5V173.906C298.5 173.583 298.372 173.273 298.143 173.044C297.914 172.816 297.604 172.688 297.281 172.688H296.469C296.146 172.688 295.836 172.816 295.607 173.044C295.378 173.273 295.25 173.583 295.25 173.906V175.125H293.219V173.906C293.219 173.583 293.09 173.273 292.862 173.044C292.633 172.816 292.323 172.688 292 172.688H291.187C290.864 172.688 290.554 172.816 290.326 173.044C290.097 173.273 289.969 173.583 289.969 173.906V178.444C289.969 178.767 290.098 179.077 290.326 179.305L291.594 180.569L291.224 188.531C291.216 188.643 291.165 188.747 291.083 188.822C291.001 188.898 290.893 188.939 290.781 188.938C290.458 188.938 290.148 189.066 289.919 189.294C289.691 189.523 289.562 189.833 289.562 190.156V191.781C289.562 191.997 289.648 192.203 289.8 192.356C289.953 192.508 290.16 192.594 290.375 192.594H303.375C303.59 192.594 303.797 192.508 303.95 192.356C304.102 192.203 304.187 191.997 304.187 191.781V190.156C304.187 189.833 304.059 189.523 303.831 189.294C303.602 189.066 303.292 188.938 302.969 188.938ZM301.344 189.75H292.406C292.299 189.75 292.195 189.707 292.119 189.631C292.043 189.555 292 189.451 292 189.344C292 189.236 292.043 189.133 292.119 189.056C292.195 188.98 292.299 188.938 292.406 188.938H301.344C301.451 188.938 301.555 188.98 301.631 189.056C301.707 189.133 301.75 189.236 301.75 189.344C301.75 189.451 301.707 189.555 301.631 189.631C301.555 189.707 301.451 189.75 301.344 189.75ZM300.531 181.219H293.219C293.111 181.219 293.008 181.176 292.931 181.1C292.855 181.024 292.812 180.92 292.812 180.812C292.812 180.705 292.855 180.601 292.931 180.525C293.008 180.449 293.111 180.406 293.219 180.406H300.531C300.639 180.406 300.742 180.449 300.819 180.525C300.895 180.601 300.937 180.705 300.937 180.812C300.937 180.92 300.895 181.024 300.819 181.1C300.742 181.176 300.639 181.219 300.531 181.219ZM301.75 178.781H292C291.892 178.781 291.789 178.738 291.713 178.662C291.637 178.586 291.594 178.483 291.594 178.375C291.594 178.267 291.637 178.164 291.713 178.088C291.789 178.012 291.892 177.969 292 177.969H301.75C301.858 177.969 301.961 178.012 302.037 178.088C302.113 178.164 302.156 178.267 302.156 178.375C302.156 178.483 302.113 178.586 302.037 178.662C301.961 178.738 301.858 178.781 301.75 178.781Z" fill="#4AB4BF"/>
<path d="M296.651 169.919C295.256 168.525 293.48 167.576 291.545 167.191C289.611 166.807 287.607 167.005 285.785 167.759C283.964 168.514 282.407 169.792 281.311 171.432C280.216 173.071 279.631 174.999 279.631 176.971C279.631 178.943 280.216 180.87 281.311 182.51C282.407 184.15 283.964 185.427 285.785 186.182C287.607 186.937 289.611 187.135 291.545 186.75C293.48 186.366 295.256 185.417 296.651 184.023C297.577 183.097 298.312 181.998 298.813 180.788C299.315 179.578 299.573 178.281 299.573 176.971C299.573 175.661 299.315 174.364 298.813 173.154C298.312 171.944 297.577 170.845 296.651 169.919ZM296.488 178.376L293.51 177.569L292.694 174.514L294.897 172.312L297.48 172.511C298.241 173.848 298.65 175.356 298.668 176.894L296.488 178.376ZM291.629 184.553L293.175 185.292C292.374 185.633 291.528 185.859 290.664 185.963L291.629 184.553ZM289.522 186.04C287.985 186.026 286.477 185.622 285.139 184.866L284.94 182.283L287.142 180.08L290.197 180.896L291.004 183.873L289.522 186.04ZM280.539 177.048L282.705 175.566L285.678 176.373L286.499 179.427L284.291 181.63L281.717 181.431C280.959 180.093 280.554 178.585 280.539 177.048ZM281.278 173.395L282.016 174.94L280.607 175.906C280.71 175.041 280.936 174.196 281.278 173.395ZM290.41 180.003L287.378 179.192L286.567 176.16L288.787 173.939L291.819 174.75L292.631 177.782L290.41 180.003ZM287.568 169.388L286.023 168.65C286.824 168.308 287.669 168.083 288.534 167.979L287.568 169.388ZM289.676 167.911C291.213 167.926 292.721 168.331 294.058 169.089L294.258 171.668L292.055 173.875L289 173.055L288.194 170.082L289.676 167.911ZM298.591 178.036C298.487 178.9 298.261 179.746 297.92 180.547L297.181 179.001L298.591 178.036ZM296.855 171.537L295.151 171.405L295.042 169.724C295.39 169.984 295.72 170.267 296.03 170.571C296.328 170.872 296.604 171.195 296.855 171.537ZM283.19 170.562C283.732 170.021 284.341 169.551 285.003 169.166L287.305 170.268L288.13 173.309L285.937 175.502L282.896 174.678L281.794 172.38C282.179 171.716 282.648 171.105 283.19 170.562ZM282.352 182.414L284.056 182.541L284.165 184.227C283.814 183.971 283.484 183.689 283.177 183.384C282.88 183.079 282.605 182.755 282.352 182.414ZM296.016 183.402C295.475 183.944 294.865 184.413 294.203 184.798L291.906 183.697L291.081 180.656L293.274 178.462L296.315 179.287L297.417 181.585C297.026 182.241 296.552 182.844 296.007 183.379L296.016 183.402Z" fill="#181824"/>
</g>
</g>
<g filter="url(#filter6_f_1056_12776)">
<circle cx="188" cy="150" r="56" fill="#4AB4BF"/>
</g>
<g filter="url(#filter7_d_1056_12776)">
<rect x="134" y="96" width="108" height="108" rx="54" fill="white"/>
<rect x="134.205" y="96.2052" width="107.59" height="107.59" rx="53.7948" stroke="white" stroke-width="0.410479"/>
<g filter="url(#filter8_i_1056_12776)">
<rect x="142.526" y="104.526" width="90.9474" height="90.9474" rx="45.4737" fill="#0F242B"/>
<g clip-path="url(#clip2_1056_12776)">
<path d="M189.786 142.761C189.84 142.448 190.16 142.425 190.36 142.424C192.002 142.42 193.644 142.437 195.285 142.491C195.824 142.509 196.264 142.389 196.55 141.94C196.829 141.504 197.163 141.474 197.614 141.623C197.925 141.727 197.974 141.739 198.177 141.8C198.703 141.957 198.844 142.086 198.783 142.715C198.691 143.678 198.542 144.641 198.417 145.635C198.363 146.062 197.998 146.38 197.567 146.374L193.362 146.313C192.896 146.306 192.513 146.678 192.506 147.144L192.5 147.578C192.494 148.019 192.828 148.39 193.267 148.43C193.837 148.482 194.407 148.534 194.97 148.63C195.729 148.76 196.507 148.904 197.212 149.197C198.864 149.881 199.636 151.224 199.52 152.994C199.45 157.348 196.19 159.218 192.853 159.377C191.595 159.436 190.382 159.287 189.244 158.726C188.851 158.534 188.675 158.069 188.835 157.663C189.148 156.869 189.448 156.079 189.832 155.332C190.106 154.797 190.688 155.094 191.126 155.197C192.333 155.49 192.391 155.479 193.467 155.676C193.498 155.682 194.029 155.758 194.06 155.76C194.248 155.772 194.784 155.795 194.929 155.778C195.521 155.707 195.916 155.343 196.036 154.722C196.207 153.844 195.924 153.435 195.686 153.164C195.337 152.717 194.625 152.609 194.033 152.513C192.878 152.327 190.881 152.244 190.016 152.151C189.773 152.124 189.704 152.056 189.703 151.602" fill="#4AB4BF"/>
<path d="M222.551 152.438C222.311 154.611 220.753 155.977 218.295 156.255C216.385 156.471 214.54 156.145 212.701 155.679C212.359 155.592 212.292 155.449 212.331 155.124C212.432 154.288 212.476 153.445 212.592 152.611C212.621 152.396 212.728 152.08 213.07 152.004C213.433 151.924 213.864 151.909 214.257 152.042C214.63 152.16 214.771 152.518 214.975 152.805C215.756 153.899 217.444 153.921 218.006 153.691C218.502 153.487 218.488 152.896 218.111 152.544C217.824 152.275 217.47 152.072 217.127 151.872C216.151 151.303 215.129 150.805 214.195 150.176C212.973 149.353 212.31 148.212 212.518 146.664C212.72 145.158 213.545 144.116 214.901 143.544C217.232 142.56 219.474 143.032 221.795 143.777C222.104 143.876 222.114 144.17 222.107 144.359C222.077 145.2 222.01 146.042 221.915 146.878C221.883 147.131 221.905 147.287 221.689 147.396C221.637 147.423 221.58 147.438 221.523 147.447C221.151 147.509 220.708 147.598 220.417 147.383C220.058 147.117 219.834 146.753 219.699 146.529C218.971 145.326 217.684 144.882 217.012 145.312C216.519 145.628 216.329 145.982 216.395 146.355C216.451 146.673 216.798 147.051 217.149 147.272C218.03 147.825 218.973 148.277 219.876 148.797C220.374 149.083 220.85 149.411 221.32 149.743C222.228 150.384 222.642 151.266 222.55 152.438L222.551 152.438Z" fill="#4AB4BF"/>
<path d="M204.398 155.737C202.784 155.08 202.3 153.758 202.267 152.242C202.224 150.359 202.292 148.474 202.313 146.591C202.315 146.35 202.32 146.109 202.324 145.79C201.747 145.782 201.206 145.774 200.685 145.767C200.479 144.678 200.605 143.84 201.544 143.154C202.56 142.412 203.502 141.548 204.379 140.643C205.042 139.96 205.713 140.015 206.525 140.276C206.513 141.139 206.5 141.998 206.487 142.956C207.864 142.976 209.2 142.995 210.567 143.015C210.553 144.013 210.54 144.912 210.525 145.903C209.183 145.883 207.848 145.864 206.484 145.844C206.455 147.856 206.379 149.779 206.421 151.699C206.44 152.596 207.077 152.956 208.147 152.883C208.479 152.86 208.81 152.837 209.142 152.808C209.47 152.778 209.798 152.74 210.186 152.7C210.272 153.438 210.372 154.156 210.423 154.878C210.433 155.017 210.279 155.25 210.145 155.304C208.295 156.044 206.408 156.408 204.398 155.737H204.398Z" fill="#4AB4BF"/>
<path d="M199.528 113L207.835 116.312L203.151 124L217.538 124.762L222.826 133.778L196.445 133.579L190.76 126.814L199.528 113Z" fill="#4AB4BF"/>
<path d="M164.885 122.022L172.13 116.783L176.124 124.85L184.466 113.114L194.919 113.476L180.634 135.637L171.872 136.815L164.885 122.022Z" fill="#4AB4BF"/>
<path d="M153.677 156.29L153 147.379L161.97 148.2L156.326 134.956L162.104 126.245L173.53 150.004L169.95 158.081L153.677 156.29Z" fill="#4AB4BF"/>
<path d="M176.919 184.347L169.062 180.078L174.621 172.996L160.425 170.543L156.239 160.967L182.412 164.275L187.258 171.663L176.919 184.347Z" fill="#4AB4BF"/>
<path d="M212.953 179.878L205.053 184.068L202.212 175.527L192.328 186L182.026 184.2L199.236 164.222L208.076 164.263L212.953 179.878Z" fill="#4AB4BF"/>
</g>
</g>
</g>
<g filter="url(#filter9_d_1056_12776)">
<rect x="94" y="59" width="40" height="40" rx="20" fill="white"/>
<rect x="94.5" y="59.5" width="39" height="39" rx="19.5" stroke="#F9FAFB"/>
<g clip-path="url(#clip3_1056_12776)">
<path d="M112.732 85.143C112.196 84.6089 111.47 84.3089 110.714 84.3089C109.957 84.3089 109.232 84.6089 108.696 85.143C107.85 85.9897 107.55 87.3368 107.285 88.5222C107.066 89.5098 106.858 90.4426 106.4 90.9004C106.326 90.977 106.285 91.0797 106.286 91.1862C106.287 91.2927 106.33 91.3946 106.405 91.4699C106.48 91.5452 106.582 91.588 106.689 91.5889C106.795 91.5898 106.898 91.5489 106.975 91.4749C107.432 91.0174 108.365 90.8094 109.353 90.5892C110.539 90.3252 111.885 90.0254 112.732 89.1787C113.266 88.6432 113.566 87.9175 113.566 87.1609C113.566 86.4043 113.266 85.6786 112.732 85.143Z" fill="#4AB4BF"/>
<path d="M118.287 84.0043L124.554 77.1289L120.746 73.3207L113.871 79.588L118.287 84.0043Z" fill="#4AB4BF"/>
<path d="M125.102 76.5277L125.914 75.6364C126.366 75.1418 126.609 74.4924 126.594 73.8231C126.578 73.1539 126.306 72.5163 125.832 72.0429C125.359 71.5695 124.721 71.2968 124.052 71.2814C123.383 71.266 122.733 71.5091 122.239 71.9602L121.347 72.7727L125.102 76.5277Z" fill="#4AB4BF"/>
<path d="M113.269 80.1376L111.882 81.4006C111.842 81.4377 111.809 81.4826 111.787 81.5326L110.889 83.5066C111.799 83.5468 112.661 83.9263 113.305 84.5702C113.949 85.2142 114.328 86.0759 114.369 86.9857L116.343 86.0887C116.393 86.0662 116.438 86.0336 116.475 85.9929L117.738 84.6071L113.269 80.1376Z" fill="#4AB4BF"/>
<path d="M115.522 75.6579C115.433 75.2663 115.462 74.8569 115.605 74.4816C115.748 74.1063 116 73.7819 116.327 73.5494C116.655 73.3169 117.044 73.1868 117.446 73.1755C117.847 73.1643 118.243 73.2723 118.583 73.486C118.923 73.6997 119.193 74.0095 119.357 74.3762C119.521 74.7429 119.573 75.15 119.505 75.546C119.438 75.9421 119.255 76.3093 118.979 76.6013C118.703 76.8932 118.347 77.0968 117.955 77.1862C117.695 77.2457 117.426 77.2532 117.163 77.2086C116.9 77.1639 116.648 77.0679 116.422 76.926C116.196 76.784 116 76.599 115.846 76.3814C115.692 76.1639 115.582 75.918 115.522 75.6579ZM117.232 74.0179C116.997 74.0715 116.783 74.1936 116.617 74.3688C116.452 74.5439 116.342 74.7643 116.301 75.0019C116.261 75.2396 116.292 75.4839 116.39 75.7039C116.489 75.9239 116.65 76.1098 116.855 76.2381C117.059 76.3663 117.296 76.4312 117.537 76.4244C117.778 76.4176 118.012 76.3396 118.208 76.2001C118.405 76.0606 118.556 75.8659 118.642 75.6407C118.728 75.4155 118.745 75.1698 118.691 74.9348C118.655 74.7788 118.589 74.6312 118.497 74.5007C118.404 74.3702 118.287 74.2592 118.151 74.174C118.016 74.0889 117.865 74.0313 117.707 74.0045C117.549 73.9777 117.388 73.9823 117.232 74.0179Z" fill="#0F242B"/>
<path d="M113.325 72.9017C112.963 72.7274 112.66 72.4496 112.456 72.1036C112.252 71.7576 112.155 71.3588 112.178 70.9576C112.2 70.5565 112.341 70.1711 112.583 69.8501C112.824 69.5291 113.156 69.2869 113.535 69.1543C113.914 69.0216 114.324 69.0044 114.713 69.1047C115.102 69.2051 115.453 69.4186 115.72 69.7182C115.988 70.0177 116.161 70.39 116.217 70.7878C116.273 71.1856 116.21 71.5911 116.036 71.9531C115.802 72.4384 115.385 72.811 114.877 72.9889C114.368 73.1667 113.81 73.1354 113.325 72.9017ZM113.106 70.543C113.001 70.7601 112.963 71.0035 112.997 71.2424C113.03 71.4812 113.134 71.7047 113.294 71.8846C113.455 72.0645 113.665 72.1927 113.899 72.253C114.132 72.3133 114.378 72.3029 114.606 72.2232C114.834 72.1436 115.033 71.9982 115.178 71.8054C115.322 71.6127 115.407 71.3813 115.42 71.1405C115.434 70.8997 115.375 70.6603 115.253 70.4527C115.13 70.2451 114.948 70.0786 114.731 69.9742C114.44 69.8345 114.105 69.816 113.801 69.9226C113.496 70.0292 113.246 70.2523 113.106 70.543Z" fill="#0F242B"/>
<path d="M107.088 71.9531C106.913 71.5911 106.85 71.1856 106.906 70.7878C106.963 70.39 107.135 70.0177 107.403 69.7182C107.671 69.4186 108.021 69.2051 108.41 69.1047C108.799 69.0044 109.209 69.0216 109.589 69.1543C109.968 69.2869 110.299 69.5291 110.541 69.8501C110.782 70.1711 110.923 70.5565 110.946 70.9576C110.968 71.3588 110.871 71.7576 110.667 72.1036C110.463 72.4496 110.161 72.7274 109.799 72.9017C109.314 73.1346 108.756 73.1656 108.247 72.9877C107.739 72.8099 107.322 72.4379 107.088 71.9531ZM107.819 71.6004C107.924 71.8176 108.09 71.9988 108.298 72.1212C108.506 72.2436 108.745 72.3017 108.986 72.2881C109.226 72.2745 109.457 72.1899 109.65 72.0449C109.843 71.8999 109.988 71.701 110.067 71.4735C110.147 71.2459 110.157 70.9999 110.097 70.7665C110.037 70.5331 109.908 70.3229 109.729 70.1623C109.549 70.0017 109.326 69.8981 109.087 69.8645C108.848 69.8308 108.605 69.8688 108.388 69.9734C108.244 70.0429 108.114 70.1401 108.008 70.2595C107.901 70.3789 107.819 70.5181 107.766 70.6691C107.714 70.8202 107.691 70.9802 107.7 71.14C107.709 71.2998 107.749 71.4563 107.819 71.6004Z" fill="#0F242B"/>
<path d="M105.169 77.1862C104.777 77.0968 104.421 76.8932 104.145 76.6013C103.869 76.3093 103.686 75.9421 103.618 75.546C103.551 75.15 103.603 74.7429 103.767 74.3762C103.931 74.0095 104.2 73.6997 104.54 73.486C104.88 73.2723 105.276 73.1643 105.678 73.1755C106.079 73.1868 106.469 73.3169 106.796 73.5494C107.124 73.7819 107.375 74.1063 107.519 74.4816C107.662 74.8569 107.691 75.2663 107.601 75.6579C107.542 75.918 107.432 76.1639 107.277 76.3814C107.123 76.599 106.927 76.784 106.701 76.926C106.476 77.0679 106.224 77.1639 105.961 77.2086C105.698 77.2532 105.429 77.2457 105.169 77.1862ZM104.433 74.9344C104.379 75.1694 104.396 75.4151 104.482 75.6403C104.568 75.8656 104.719 76.0603 104.915 76.1999C105.112 76.3394 105.345 76.4175 105.586 76.4244C105.827 76.4312 106.065 76.3664 106.269 76.2382C106.473 76.11 106.635 75.9241 106.733 75.7041C106.832 75.484 106.863 75.2397 106.822 75.0021C106.782 74.7644 106.672 74.544 106.507 74.3689C106.341 74.1937 106.127 74.0715 105.892 74.0179C105.577 73.946 105.246 74.0022 104.973 74.174C104.699 74.3459 104.505 74.6194 104.433 74.9344Z" fill="#0F242B"/>
<path d="M105.209 81.6283C104.959 81.3142 104.807 80.9329 104.773 80.5326C104.74 80.1323 104.825 79.7309 105.019 79.3793C105.214 79.0277 105.508 78.7416 105.865 78.5572C106.222 78.3727 106.625 78.2983 107.025 78.3432C107.424 78.3882 107.801 78.5505 108.108 78.8096C108.415 79.0688 108.638 79.4131 108.749 79.7992C108.86 80.1852 108.855 80.5955 108.733 80.9783C108.611 81.3611 108.378 81.6991 108.064 81.9496C107.643 82.2847 107.105 82.439 106.57 82.3787C106.035 82.3185 105.546 82.0486 105.209 81.6283ZM106.037 79.4085C105.784 79.6101 105.622 79.9039 105.586 80.2253C105.549 80.5467 105.642 80.8694 105.844 81.1223C106.045 81.3752 106.339 81.5377 106.66 81.574C106.982 81.6103 107.305 81.5175 107.557 81.3159C107.685 81.2171 107.792 81.0938 107.872 80.9532C107.952 80.8127 108.003 80.6576 108.022 80.4971C108.042 80.3366 108.029 80.1739 107.985 80.0184C107.941 79.8629 107.866 79.7177 107.765 79.5913C107.664 79.465 107.54 79.3599 107.398 79.2823C107.256 79.2047 107.1 79.156 106.939 79.1392C106.779 79.1224 106.616 79.1377 106.461 79.1843C106.306 79.2309 106.162 79.3078 106.038 79.4106L106.037 79.4085Z" fill="#0F242B"/>
<path d="M110.967 86.7011C109.042 86.5876 107.19 85.9287 105.626 84.8015C104.062 83.6743 102.851 82.1252 102.135 80.3353C101.419 78.5455 101.227 76.5888 101.582 74.6939C101.936 72.799 102.823 71.0441 104.138 69.6345C105.453 68.2248 107.142 67.2185 109.008 66.7332C110.874 66.248 112.839 66.3037 114.674 66.894C116.509 67.4842 118.139 68.5846 119.372 70.0666C120.605 71.5485 121.39 73.3507 121.637 75.2627C121.708 75.7803 121.666 76.3069 121.516 76.8071C121.366 77.3074 121.11 77.7695 120.765 78.1623C120.421 78.5551 119.996 78.8694 119.52 79.084C119.044 79.2987 118.527 79.4086 118.005 79.4065H113.593C113.162 79.4065 112.749 79.5777 112.444 79.8824C112.14 80.1872 111.968 80.6005 111.968 81.0315C111.968 81.4624 112.14 81.8758 112.444 82.1805C112.749 82.4852 113.162 82.6565 113.593 82.6565C114.056 82.656 114.504 82.8243 114.852 83.1297C115.2 83.4351 115.425 83.8568 115.485 84.316C115.544 84.7752 115.435 85.2404 115.176 85.6247C114.918 86.009 114.529 86.2861 114.081 86.4041C113.064 86.6624 112.014 86.7626 110.967 86.7011ZM105.052 69.8596C103.751 71.1226 102.846 72.7367 102.447 74.5051C102.048 76.2735 102.172 78.1199 102.804 79.8192C103.436 81.5184 104.548 82.9971 106.006 84.0751C107.463 85.1531 109.203 85.7837 111.013 85.8902C111.977 85.9458 112.943 85.8533 113.879 85.616C114.138 85.5593 114.366 85.4049 114.515 85.1846C114.664 84.9643 114.723 84.6952 114.679 84.433C114.656 84.1637 114.531 83.9134 114.329 83.7339C114.127 83.5544 113.864 83.4596 113.593 83.469C112.947 83.469 112.327 83.2121 111.87 82.755C111.413 82.2979 111.156 81.6779 111.156 81.0315C111.156 80.385 111.413 79.765 111.87 79.3079C112.327 78.8508 112.947 78.594 113.593 78.594H118.005C118.412 78.596 118.815 78.5106 119.186 78.3434C119.556 78.1763 119.887 77.9314 120.155 77.6253C120.423 77.3192 120.622 76.959 120.739 76.5693C120.855 76.1795 120.887 75.7693 120.831 75.3663C120.609 73.6458 119.913 72.0209 118.82 70.6738C117.727 69.3266 116.28 68.3103 114.643 67.7387C113.005 67.1671 111.24 67.0627 109.546 67.4373C107.852 67.8119 106.296 68.6506 105.052 69.8596Z" fill="#0F242B"/>
</g>
</g>
<defs>
<filter id="filter0_d_1056_12776" x="108.212" y="200.212" width="28.1655" height="28.4301" filterUnits="userSpaceOnUse" color-interpolation-filters="sRGB">
<feFlood flood-opacity="0" result="BackgroundImageFix"/>
<feColorMatrix in="SourceAlpha" type="matrix" values="0 0 0 0 0 0 0 0 0 0 0 0 0 0 0 0 0 0 127 0" result="hardAlpha"/>
<feOffset/>
<feGaussianBlur stdDeviation="1"/>
<feComposite in2="hardAlpha" operator="out"/>
<feColorMatrix type="matrix" values="0 0 0 0 0.290196 0 0 0 0 0.705882 0 0 0 0 0.74902 0 0 0 0.96 0"/>
<feBlend mode="normal" in2="BackgroundImageFix" result="effect1_dropShadow_1056_12776"/>
<feBlend mode="normal" in="SourceGraphic" in2="effect1_dropShadow_1056_12776" result="shape"/>
</filter>
<filter id="filter1_d_1056_12776" x="243.213" y="70.2124" width="28.1655" height="28.4301" filterUnits="userSpaceOnUse" color-interpolation-filters="sRGB">
<feFlood flood-opacity="0" result="BackgroundImageFix"/>
<feColorMatrix in="SourceAlpha" type="matrix" values="0 0 0 0 0 0 0 0 0 0 0 0 0 0 0 0 0 0 127 0" result="hardAlpha"/>
<feOffset/>
<feGaussianBlur stdDeviation="1"/>
<feComposite in2="hardAlpha" operator="out"/>
<feColorMatrix type="matrix" values="0 0 0 0 0.290196 0 0 0 0 0.705882 0 0 0 0 0.74902 0 0 0 0.96 0"/>
<feBlend mode="normal" in2="BackgroundImageFix" result="effect1_dropShadow_1056_12776"/>
<feBlend mode="normal" in="SourceGraphic" in2="effect1_dropShadow_1056_12776" result="shape"/>
</filter>
<filter id="filter2_d_1056_12776" x="34.2667" y="79.5667" width="43.4665" height="43.4665" filterUnits="userSpaceOnUse" color-interpolation-filters="sRGB">
<feFlood flood-opacity="0" result="BackgroundImageFix"/>
<feColorMatrix in="SourceAlpha" type="matrix" values="0 0 0 0 0 0 0 0 0 0 0 0 0 0 0 0 0 0 127 0" result="hardAlpha"/>
<feOffset dy="1.29994"/>
<feGaussianBlur stdDeviation="0.86663"/>
<feComposite in2="hardAlpha" operator="out"/>
<feColorMatrix type="matrix" values="0 0 0 0 0.283334 0 0 0 0 0.283334 0 0 0 0 0.283334 0 0 0 0.15 0"/>
<feBlend mode="normal" in2="BackgroundImageFix" result="effect1_dropShadow_1056_12776"/>
<feBlend mode="normal" in="SourceGraphic" in2="effect1_dropShadow_1056_12776" result="shape"/>
</filter>
<filter id="filter3_d_1056_12776" x="58.8409" y="231.46" width="44.3182" height="44.3182" filterUnits="userSpaceOnUse" color-interpolation-filters="sRGB">
<feFlood flood-opacity="0" result="BackgroundImageFix"/>
<feColorMatrix in="SourceAlpha" type="matrix" values="0 0 0 0 0 0 0 0 0 0 0 0 0 0 0 0 0 0 127 0" result="hardAlpha"/>
<feOffset dy="1.61931"/>
<feGaussianBlur stdDeviation="1.07954"/>
<feComposite in2="hardAlpha" operator="out"/>
<feColorMatrix type="matrix" values="0 0 0 0 0.283334 0 0 0 0 0.283334 0 0 0 0 0.283334 0 0 0 0.15 0"/>
<feBlend mode="normal" in2="BackgroundImageFix" result="effect1_dropShadow_1056_12776"/>
<feBlend mode="normal" in="SourceGraphic" in2="effect1_dropShadow_1056_12776" result="shape"/>
</filter>
<filter id="filter4_d_1056_12776" x="296.841" y="79.4602" width="44.3182" height="44.3182" filterUnits="userSpaceOnUse" color-interpolation-filters="sRGB">
<feFlood flood-opacity="0" result="BackgroundImageFix"/>
<feColorMatrix in="SourceAlpha" type="matrix" values="0 0 0 0 0 0 0 0 0 0 0 0 0 0 0 0 0 0 127 0" result="hardAlpha"/>
<feOffset dy="1.61931"/>
<feGaussianBlur stdDeviation="1.07954"/>
<feComposite in2="hardAlpha" operator="out"/>
<feColorMatrix type="matrix" values="0 0 0 0 0.283334 0 0 0 0 0.283334 0 0 0 0 0.283334 0 0 0 0.15 0"/>
<feBlend mode="normal" in2="BackgroundImageFix" result="effect1_dropShadow_1056_12776"/>
<feBlend mode="normal" in="SourceGraphic" in2="effect1_dropShadow_1056_12776" result="shape"/>
</filter>
<filter id="filter5_d_1056_12776" x="269.841" y="159.46" width="44.3182" height="44.3182" filterUnits="userSpaceOnUse" color-interpolation-filters="sRGB">
<feFlood flood-opacity="0" result="BackgroundImageFix"/>
<feColorMatrix in="SourceAlpha" type="matrix" values="0 0 0 0 0 0 0 0 0 0 0 0 0 0 0 0 0 0 127 0" result="hardAlpha"/>
<feOffset dy="1.61931"/>
<feGaussianBlur stdDeviation="1.07954"/>
<feComposite in2="hardAlpha" operator="out"/>
<feColorMatrix type="matrix" values="0 0 0 0 0.283334 0 0 0 0 0.283334 0 0 0 0 0.283334 0 0 0 0.15 0"/>
<feBlend mode="normal" in2="BackgroundImageFix" result="effect1_dropShadow_1056_12776"/>
<feBlend mode="normal" in="SourceGraphic" in2="effect1_dropShadow_1056_12776" result="shape"/>
</filter>
<filter id="filter6_f_1056_12776" x="94.2552" y="56.2552" width="187.49" height="187.49" filterUnits="userSpaceOnUse" color-interpolation-filters="sRGB">
<feFlood flood-opacity="0" result="BackgroundImageFix"/>
<feBlend mode="normal" in="SourceGraphic" in2="BackgroundImageFix" result="shape"/>
<feGaussianBlur stdDeviation="18.8724" result="effect1_foregroundBlur_1056_12776"/>
</filter>
<filter id="filter7_d_1056_12776" x="130.716" y="95.179" width="114.568" height="114.568" filterUnits="userSpaceOnUse" color-interpolation-filters="sRGB">
<feFlood flood-opacity="0" result="BackgroundImageFix"/>
<feColorMatrix in="SourceAlpha" type="matrix" values="0 0 0 0 0 0 0 0 0 0 0 0 0 0 0 0 0 0 127 0" result="hardAlpha"/>
<feOffset dy="2.46287"/>
<feGaussianBlur stdDeviation="1.64192"/>
<feComposite in2="hardAlpha" operator="out"/>
<feColorMatrix type="matrix" values="0 0 0 0 0.529834 0 0 0 0 0.718306 0 0 0 0 1 0 0 0 0.5 0"/>
<feBlend mode="normal" in2="BackgroundImageFix" result="effect1_dropShadow_1056_12776"/>
<feBlend mode="normal" in="SourceGraphic" in2="effect1_dropShadow_1056_12776" result="shape"/>
</filter>
<filter id="filter8_i_1056_12776" x="142.526" y="104.526" width="90.9473" height="90.9474" filterUnits="userSpaceOnUse" color-interpolation-filters="sRGB">
<feFlood flood-opacity="0" result="BackgroundImageFix"/>
<feBlend mode="normal" in="SourceGraphic" in2="BackgroundImageFix" result="shape"/>
<feColorMatrix in="SourceAlpha" type="matrix" values="0 0 0 0 0 0 0 0 0 0 0 0 0 0 0 0 0 0 127 0" result="hardAlpha"/>
<feMorphology radius="2.18922" operator="erode" in="SourceAlpha" result="effect1_innerShadow_1056_12776"/>
<feOffset/>
<feGaussianBlur stdDeviation="4.37844"/>
<feComposite in2="hardAlpha" operator="arithmetic" k2="-1" k3="1"/>
<feColorMatrix type="matrix" values="0 0 0 0 0 0 0 0 0 0 0 0 0 0 0 0 0 0 0.15 0"/>
<feBlend mode="normal" in2="shape" result="effect1_innerShadow_1056_12776"/>
</filter>
<filter id="filter9_d_1056_12776" x="91.8409" y="58.4602" width="44.3182" height="44.3182" filterUnits="userSpaceOnUse" color-interpolation-filters="sRGB">
<feFlood flood-opacity="0" result="BackgroundImageFix"/>
<feColorMatrix in="SourceAlpha" type="matrix" values="0 0 0 0 0 0 0 0 0 0 0 0 0 0 0 0 0 0 127 0" result="hardAlpha"/>
<feOffset dy="1.61931"/>
<feGaussianBlur stdDeviation="1.07954"/>
<feComposite in2="hardAlpha" operator="out"/>
<feColorMatrix type="matrix" values="0 0 0 0 0.283334 0 0 0 0 0.283334 0 0 0 0 0.283334 0 0 0 0.15 0"/>
<feBlend mode="normal" in2="BackgroundImageFix" result="effect1_dropShadow_1056_12776"/>
<feBlend mode="normal" in="SourceGraphic" in2="effect1_dropShadow_1056_12776" result="shape"/>
</filter>
<linearGradient id="paint0_linear_1056_12776" x1="188.157" y1="147.881" x2="188.157" y2="338.288" gradientUnits="userSpaceOnUse">
<stop stop-color="#4AB4BF" stop-opacity="0.6"/>
<stop offset="1" stop-color="#DEE0E3" stop-opacity="0"/>
</linearGradient>
<linearGradient id="paint1_linear_1056_12776" x1="182.925" y1="151.983" x2="182.925" y2="-38.6425" gradientUnits="userSpaceOnUse">
<stop stop-color="#4AB4BF" stop-opacity="0.6"/>
<stop offset="1" stop-color="white" stop-opacity="0"/>
</linearGradient>
<linearGradient id="paint2_linear_1056_12776" x1="187.088" y1="190.22" x2="187.088" y2="361.349" gradientUnits="userSpaceOnUse">
<stop stop-color="#4AB4BF" stop-opacity="0.6"/>
<stop offset="1" stop-color="#4AB4BF" stop-opacity="0"/>
</linearGradient>
<linearGradient id="paint3_linear_1056_12776" x1="184.974" y1="115.999" x2="184.974" y2="-55.1299" gradientUnits="userSpaceOnUse">
<stop stop-color="#4AB4BF" stop-opacity="0.6"/>
<stop offset="1" stop-color="#DEE0E3" stop-opacity="0"/>
</linearGradient>
<clipPath id="clip0_1056_12776">
<rect width="26" height="26" fill="white" transform="translate(306 87)"/>
</clipPath>
<clipPath id="clip1_1056_12776">
<rect width="26" height="26" fill="white" transform="translate(279 167)"/>
</clipPath>
<clipPath id="clip2_1056_12776">
<rect width="69.8261" height="73" fill="white" transform="translate(153 113)"/>
</clipPath>
<clipPath id="clip3_1056_12776">
<rect width="26" height="26" fill="white" transform="translate(101 66.0001)"/>
</clipPath>
</defs>
</svg>
