<svg width="65" height="64" viewBox="0 0 65 64" fill="none" xmlns="http://www.w3.org/2000/svg">
<path d="M32.5 63.9999C50.1731 63.9999 64.5 49.673 64.5 31.9999C64.5 14.3268 50.1731 -0.00012207 32.5 -0.00012207C14.8269 -0.00012207 0.5 14.3268 0.5 31.9999C0.5 49.673 14.8269 63.9999 32.5 63.9999Z" fill="url(#paint0_linear_2837_12073)"/>
<path d="M49.1437 20.4524C48.955 19.9174 48.4712 19.5887 47.825 19.5537C47.0925 19.5137 46.3562 19.4862 45.6312 19.3887C41.1387 18.7799 37.0237 17.2537 33.4875 14.3412C33.2416 14.1215 32.9234 14 32.5937 14C32.264 14 31.9458 14.1215 31.7 14.3412C31.5062 14.4974 31.325 14.6762 31.1312 14.8262C27.0875 17.8499 22.4937 19.2974 17.4912 19.5524C16.465 19.6049 15.9375 20.1049 15.9362 21.1362V25.6637C15.9362 26.4674 15.9237 27.2712 15.9362 28.0737C15.9487 28.8762 15.9437 29.6837 16.0337 30.4787C16.7337 36.7137 19.5 41.6612 24.3775 45.2699L24.4187 45.4312L41.6625 62.6687C53.7587 59.0599 62.8537 48.4899 64.2987 35.6074L49.1437 20.4524Z" fill="url(#paint1_linear_2837_12073)"/>
<path d="M49.2312 20.9874C49.2312 20.1399 48.665 19.5999 47.825 19.5537C47.0925 19.5137 46.3562 19.4862 45.6312 19.3887C41.1387 18.7799 37.0237 17.2537 33.4875 14.3412C33.2416 14.1215 32.9234 14 32.5937 14C32.264 14 31.9458 14.1215 31.7 14.3412C31.5062 14.4974 31.325 14.6762 31.1312 14.8262C27.0875 17.8499 22.4937 19.2974 17.4912 19.5524C16.465 19.6049 15.9375 20.1049 15.9362 21.1362V25.6637C15.9362 26.4674 15.9237 27.2712 15.9362 28.0737C15.9487 28.8762 15.9437 29.6837 16.0337 30.4787C16.81 37.3899 20.1237 42.7212 26.04 46.3987C27.915 47.5662 29.8537 48.6487 31.755 49.7887C32.0033 49.947 32.2905 50.0336 32.585 50.0387C32.886 50.0316 33.1793 49.9417 33.4325 49.7787C34.7975 48.9587 36.1612 48.1362 37.5462 47.3524C40.0325 45.9449 42.3475 44.3299 44.2062 42.1237C47.1562 38.6237 48.9012 34.6124 49.1425 30.0412C49.3037 27.0287 49.2212 23.9999 49.2312 20.9874ZM47.8962 29.9737C47.6775 34.0987 46.115 37.9199 43.2525 41.3174C41.7275 43.1262 39.7775 44.6512 36.9312 46.2637C35.635 46.9987 34.3412 47.7749 33.0912 48.5249L32.7912 48.7049C32.7298 48.7472 32.6598 48.7753 32.5862 48.7874C32.5184 48.7764 32.4539 48.7503 32.3975 48.7112C31.6762 48.2812 30.9425 47.8512 30.2325 47.4374C29.0662 46.7562 27.8575 46.0512 26.7012 45.3312C23.9275 43.6074 21.73 41.4712 20.17 38.9824C18.61 36.4937 17.6437 33.5949 17.2762 30.3337C17.2112 29.7574 17.2037 29.1587 17.195 28.5262C17.195 28.3662 17.195 28.2049 17.1875 28.0449C17.1775 27.5024 17.18 26.9437 17.1875 26.4037C17.1875 26.1537 17.1875 25.9037 17.1875 25.6537V24.4187C17.1875 23.3228 17.1875 22.2262 17.1875 21.1287C17.1835 21.0349 17.1949 20.9412 17.2212 20.8512C17.3286 20.8122 17.4419 20.7919 17.5562 20.7912C23.02 20.5124 27.84 18.8387 31.8812 15.8162C32.0387 15.6987 32.1737 15.5774 32.2937 15.4712C32.3637 15.4087 32.43 15.3462 32.4875 15.3024C32.5177 15.2744 32.5541 15.2538 32.5937 15.2424C32.6312 15.2539 32.6655 15.274 32.6937 15.3012C36.2062 18.1937 40.3837 19.9337 45.465 20.6224C46.1287 20.7124 46.7837 20.7474 47.4187 20.7787L47.7575 20.7974C47.8294 20.7949 47.9006 20.8131 47.9625 20.8499C47.9781 20.8896 47.9849 20.9323 47.9825 20.9749V23.5012C48 25.6349 48.0087 27.8349 47.8962 29.9737Z" fill="white"/>
<path d="M40.0824 26.6686C39.8796 26.4658 39.6388 26.3049 39.3739 26.1951C39.1089 26.0853 38.8249 26.0288 38.538 26.0288C38.2512 26.0288 37.9672 26.0853 37.7022 26.1951C37.4372 26.3049 37.1964 26.4658 36.9936 26.6686L30.9286 32.7336L28.1786 29.9836C27.9758 29.7808 27.7351 29.62 27.4701 29.5102C27.2051 29.4004 26.9211 29.3439 26.6343 29.3439C26.3475 29.3439 26.0634 29.4004 25.7985 29.5102C25.5335 29.62 25.2927 29.7808 25.0899 29.9836C24.8871 30.1865 24.7262 30.4272 24.6164 30.6922C24.5067 30.9572 24.4502 31.2412 24.4502 31.528C24.4502 31.8148 24.5067 32.0988 24.6164 32.3638C24.7262 32.6288 24.8871 32.8696 25.0899 33.0724L29.3836 37.3661C29.5864 37.569 29.8272 37.7299 30.0922 37.8397C30.3572 37.9495 30.6412 38.006 30.928 38.006C31.2149 38.006 31.4989 37.9495 31.7639 37.8397C32.0288 37.7299 32.2696 37.569 32.4724 37.3661L40.0811 29.7574C40.4905 29.3477 40.7205 28.7922 40.7205 28.213C40.7205 27.6338 40.4905 27.0784 40.0811 26.6686H40.0824ZM39.1986 28.8749L31.5899 36.4836C31.5032 36.5705 31.4002 36.6393 31.2868 36.6863C31.1735 36.7333 31.052 36.7575 30.9293 36.7575C30.8066 36.7575 30.6851 36.7333 30.5717 36.6863C30.4583 36.6393 30.3554 36.5705 30.2686 36.4836L25.9749 32.1886C25.8881 32.1019 25.8193 31.9989 25.7724 31.8855C25.7254 31.7722 25.7013 31.6507 25.7013 31.528C25.7013 31.4053 25.7254 31.2838 25.7724 31.1705C25.8193 31.0571 25.8881 30.9541 25.9749 30.8674C26.0617 30.7806 26.1646 30.7118 26.278 30.6649C26.3913 30.6179 26.5128 30.5938 26.6355 30.5938C26.7582 30.5938 26.8797 30.6179 26.993 30.6649C27.1064 30.7118 27.2094 30.7806 27.2961 30.8674L30.0461 33.6174C30.1622 33.7336 30.3001 33.8258 30.4518 33.8887C30.6036 33.9516 30.7663 33.984 30.9305 33.984C31.0948 33.984 31.2574 33.9516 31.4092 33.8887C31.5609 33.8258 31.6988 33.7336 31.8149 33.6174L37.8749 27.5524C37.9617 27.4655 38.0648 27.3965 38.1783 27.3494C38.2918 27.3024 38.4135 27.2781 38.5363 27.2781C38.6592 27.278 38.7809 27.3021 38.8944 27.3491C39.0079 27.3961 39.1111 27.4649 39.198 27.5518C39.2849 27.6386 39.3539 27.7417 39.401 27.8552C39.448 27.9687 39.4723 28.0903 39.4724 28.2132C39.4724 28.3361 39.4483 28.4577 39.4013 28.5713C39.3543 28.6848 39.2855 28.788 39.1986 28.8749Z" fill="white"/>
<defs>
<linearGradient id="paint0_linear_2837_12073" x1="0.5" y1="31.9999" x2="64.5" y2="31.9999" gradientUnits="userSpaceOnUse">
<stop stop-color="#D6ECEE"/>
<stop offset="1" stop-color="#4AB4BF"/>
</linearGradient>
<linearGradient id="paint1_linear_2837_12073" x1="20.06" y1="16.2424" x2="56.7862" y2="52.9687" gradientUnits="userSpaceOnUse">
<stop stop-color="#285C61"/>
<stop offset="1" stop-color="#338AA7" stop-opacity="0"/>
</linearGradient>
</defs>
</svg>
