<svg width="65" height="64" viewBox="0 0 65 64" fill="none" xmlns="http://www.w3.org/2000/svg">
<g clip-path="url(#clip0_2837_12121)">
<path d="M32.5 63.9999C50.1731 63.9999 64.5 49.673 64.5 31.9999C64.5 14.3268 50.1731 -0.00012207 32.5 -0.00012207C14.8269 -0.00012207 0.5 14.3268 0.5 31.9999C0.5 49.673 14.8269 63.9999 32.5 63.9999Z" fill="url(#paint0_linear_2837_12121)"/>
<path d="M62.5277 43.0812C58.3664 54.3587 48.0277 62.6487 35.6214 63.8487L13.2102 41.4374L12.9189 40.0787L15.2064 34.5487L19.1177 29.9049L24.9464 27.1487L21.6739 23.8749L20.0002 19.0774L21.4589 14.7187L24.6589 11.9999L29.1802 11.5187L32.5002 13.0537L62.5277 43.0812Z" fill="url(#paint1_linear_2837_12121)"/>
<path d="M53.2351 32.0424L50.9851 31.3424C48.6463 30.6136 46.2276 29.8598 43.8526 29.1124C43.2833 28.9277 42.6697 28.9312 42.1026 29.1224C40.8201 29.5336 39.5113 29.9411 38.2451 30.3349L37.8451 30.4599C37.7201 30.3349 37.5951 30.2099 37.4638 30.0986C35.5888 28.3911 33.4763 27.2236 31.2138 26.6224C32.9313 25.8206 34.324 24.457 35.1617 22.7568C35.9995 21.0565 36.2323 19.1214 35.8217 17.271C35.411 15.4206 34.3815 13.7657 32.9032 12.5794C31.4248 11.3932 29.5861 10.7467 27.6907 10.7467C25.7953 10.7467 23.9566 11.3932 22.4783 12.5794C20.9999 13.7657 19.9704 15.4206 19.5598 17.271C19.1491 19.1214 19.3819 21.0565 20.2197 22.7568C21.0575 24.457 22.4501 25.8206 24.1676 26.6224C21.9101 27.2174 19.7926 28.3911 17.9176 30.0986C15.2101 32.5699 13.2138 36.0636 12.2926 39.9349C12.2152 40.2591 12.2112 40.5965 12.2811 40.9225C12.3509 41.2484 12.4928 41.5546 12.6963 41.8186C15.2467 45.1339 18.8226 47.5119 22.8663 48.5816C26.9099 49.6514 31.194 49.3528 35.0501 47.7323C35.4494 48.2612 35.8842 48.7623 36.3513 49.2323C38.2101 51.1073 40.4551 52.2673 42.2026 53.0699C42.45 53.1852 42.7196 53.2453 42.9926 53.2461C43.3053 53.2434 43.6132 53.169 43.8926 53.0286L43.9976 52.9774C44.5201 52.7211 45.0613 52.4561 45.5901 52.1799C49.6438 50.0661 52.3676 46.6961 53.6876 42.1623C54.045 40.9242 54.307 39.6605 54.4713 38.3824C54.6528 36.9666 54.7459 35.5409 54.7501 34.1136C54.7576 33.0249 54.2763 32.3674 53.2351 32.0424ZM20.6251 19.0774C20.6248 17.6772 21.0398 16.3084 21.8176 15.1441C22.5953 13.9799 23.7008 13.0724 24.9943 12.5364C26.2879 12.0005 27.7113 11.8602 29.0845 12.1333C30.4578 12.4064 31.7192 13.0806 32.7093 14.0707C33.6993 15.0607 34.3735 16.3222 34.6466 17.6954C34.9197 19.0687 34.7794 20.4921 34.2435 21.7856C33.7076 23.0791 32.8001 24.1847 31.6358 24.9624C30.4715 25.7401 29.1027 26.1551 27.7026 26.1549C25.8261 26.1529 24.0271 25.4066 22.7002 24.0797C21.3734 22.7528 20.6271 20.9538 20.6251 19.0774ZM27.7026 47.9524C24.9958 47.9609 22.3238 47.3425 19.8959 46.1456C17.4681 44.9487 15.3504 43.2058 13.7088 41.0536C13.619 40.9366 13.5563 40.8011 13.5254 40.6569C13.4944 40.5127 13.4961 40.3634 13.5301 40.2199C15.3176 32.6786 21.1451 27.4124 27.7026 27.4124C30.9326 27.4124 33.9851 28.6899 36.4651 30.8886L35.0988 31.3124C34.2913 31.5624 33.4843 31.8124 32.6776 32.0624C31.7501 32.3574 31.2501 33.0386 31.2501 33.9899V34.7049V35.0111L31.2813 35.5111C31.3101 35.9386 31.3363 36.3436 31.3651 36.7499C31.4982 38.9661 31.9365 41.1534 32.6676 43.2499C33.0909 44.4507 33.6472 45.6003 34.3263 46.6774C32.2199 47.5257 29.9697 47.9598 27.6988 47.9561L27.7026 47.9524ZM52.4876 41.8161C51.2501 46.0661 48.8038 49.0974 45.0126 51.0749C44.4976 51.3436 43.9638 51.6049 43.4476 51.8586L43.3426 51.9099C43.2493 51.9639 43.1443 51.9946 43.0366 51.9994C42.9289 52.0042 42.8216 51.9829 42.7238 51.9374C41.0726 51.1786 38.9563 50.0861 37.2388 48.3561C36.8739 47.9891 36.5305 47.6013 36.2101 47.1949C35.9476 46.8648 35.7013 46.5236 35.4701 46.1674C34.7987 45.1242 34.2532 44.0051 33.8451 42.8336C33.1524 40.8434 32.7373 38.7672 32.6113 36.6636C32.5838 36.2599 32.5563 35.8561 32.5288 35.4299L32.5001 34.9899V34.7049C32.5001 34.4786 32.5001 34.2361 32.5001 33.9936C32.5001 33.5911 32.6563 33.3874 33.0526 33.2636C33.8576 33.0136 34.6634 32.7636 35.4701 32.5136L37.4163 31.9086L37.4888 31.8861L38.6251 31.5324L38.8113 31.4749C40.0213 31.0999 41.2676 30.7099 42.4938 30.3161C42.8147 30.2039 43.1636 30.2008 43.4863 30.3074C45.8613 31.0574 48.2838 31.8074 50.6238 32.5399L52.8676 33.2399C53.3838 33.3999 53.5088 33.5711 53.5051 34.1086C53.4801 37.0249 53.1488 39.5474 52.4876 41.8161Z" fill="white"/>
<path d="M43.0001 35.8624C42.3215 35.8625 41.6665 36.1117 41.1593 36.5626C40.6522 37.0135 40.3281 37.6349 40.2486 38.3089C40.1691 38.9828 40.3396 39.6626 40.7279 40.2192C41.1162 40.7757 41.6952 41.1705 42.3551 41.3286V45.7199C42.3625 45.8859 42.4335 46.0426 42.5536 46.1575C42.6736 46.2724 42.8334 46.3365 42.9995 46.3365C43.1657 46.3365 43.3254 46.2724 43.4455 46.1575C43.5655 46.0426 43.6366 45.8859 43.6439 45.7199V41.3286C44.3038 41.1705 44.8827 40.7759 45.271 40.2194C45.6593 39.6629 45.8299 38.9834 45.7505 38.3095C45.6712 37.6356 45.3473 37.0143 44.8404 36.5632C44.3335 36.1122 43.6787 35.8628 43.0001 35.8624ZM43.0001 40.1124C42.7069 40.1124 42.4203 40.0254 42.1765 39.8625C41.9327 39.6996 41.7427 39.4681 41.6305 39.1972C41.5183 38.9263 41.4889 38.6282 41.5461 38.3406C41.6033 38.0531 41.7445 37.7889 41.9519 37.5816C42.1592 37.3742 42.4233 37.2331 42.7109 37.1759C42.9985 37.1187 43.2966 37.148 43.5675 37.2602C43.8384 37.3724 44.0699 37.5624 44.2328 37.8062C44.3957 38.05 44.4826 38.3367 44.4826 38.6299C44.483 38.8248 44.4449 39.0179 44.3705 39.1982C44.2962 39.3784 44.1871 39.5422 44.0494 39.6802C43.9117 39.8182 43.7482 39.9278 43.5681 40.0026C43.3881 40.0774 43.1951 40.116 43.0001 40.1161V40.1124Z" fill="white"/>
</g>
<defs>
<linearGradient id="paint0_linear_2837_12121" x1="0.5" y1="31.9999" x2="64.5" y2="31.9999" gradientUnits="userSpaceOnUse">
<stop stop-color="#E8F3F3"/>
<stop offset="1" stop-color="#4AB4BF"/>
</linearGradient>
<linearGradient id="paint1_linear_2837_12121" x1="15.8914" y1="20.2824" x2="52.6814" y2="57.0724" gradientUnits="userSpaceOnUse">
<stop stop-color="#285C61"/>
<stop offset="1" stop-color="#338AA7" stop-opacity="0"/>
</linearGradient>
<clipPath id="clip0_2837_12121">
<rect width="64" height="64" fill="white" transform="translate(0.5 -0.00012207)"/>
</clipPath>
</defs>
</svg>
