<svg width="76" height="69" viewBox="0 0 76 69" fill="none" xmlns="http://www.w3.org/2000/svg">
<path d="M72.5004 36.2197H70.7461C70.1899 33.9523 69.2857 31.784 68.0655 29.7915L69.3132 28.5481C69.6187 28.2437 69.861 27.8823 70.0263 27.4845C70.1916 27.0868 70.2767 26.6605 70.2767 26.23C70.2767 25.7994 70.1916 25.3731 70.0263 24.9754C69.861 24.5776 69.6187 24.2163 69.3132 23.9119L66.2126 20.8218C65.9072 20.5173 65.5446 20.2758 65.1455 20.111C64.7464 19.9463 64.3186 19.8615 63.8866 19.8615C63.4547 19.8615 63.0269 19.9463 62.6278 20.111C62.2287 20.2758 61.8661 20.5173 61.5607 20.8218L60.313 22.0652C58.3135 20.8486 56.1375 19.9471 53.8619 19.3925V17.6443C53.8619 16.7749 53.5153 15.9411 52.8985 15.3264C52.2817 14.7116 51.4451 14.3662 50.5727 14.3662H46.1872C45.3149 14.3662 44.4783 14.7116 43.8614 15.3264C43.2446 15.9411 42.8981 16.7749 42.8981 17.6443V19.3925C40.6229 19.9469 38.4473 20.848 36.4481 22.0641L35.2004 20.8207C34.895 20.5162 34.5323 20.2747 34.1332 20.1099C33.7341 19.9452 33.3064 19.8604 32.8744 19.8604C32.4424 19.8604 32.0147 19.9452 31.6156 20.1099C31.2165 20.2747 30.8539 20.5162 30.5484 20.8207L27.4479 23.9108C27.1424 24.2152 26.9001 24.5765 26.7347 24.9743C26.5694 25.372 26.4843 25.7983 26.4843 26.2289C26.4843 26.6594 26.5694 27.0857 26.7347 27.4834C26.9001 27.8812 27.1424 28.2426 27.4479 28.547L28.6956 29.7904C27.4748 31.7832 26.5703 33.9518 26.0138 36.2197H24.2596C23.3873 36.2197 22.5507 36.5651 21.9338 37.1799C21.317 37.7946 20.9705 38.6284 20.9705 39.4978V43.8685C20.9705 44.7379 21.317 45.5716 21.9338 46.1864C22.5507 46.8011 23.3873 47.1465 24.2596 47.1465H26.0138C26.57 49.414 27.4742 51.5823 28.6945 53.5747L27.4468 54.8182C27.1413 55.1226 26.899 55.484 26.7336 55.8817C26.5683 56.2794 26.4832 56.7058 26.4832 57.1363C26.4832 57.5668 26.5683 57.9931 26.7336 58.3909C26.899 58.7886 27.1413 59.15 27.4468 59.4544L30.5473 62.5445C30.8528 62.8489 31.2154 63.0904 31.6145 63.2552C32.0136 63.42 32.4413 63.5048 32.8733 63.5048C33.3053 63.5048 33.7331 63.42 34.1321 63.2552C34.5312 63.0904 34.8939 62.8489 35.1993 62.5445L36.447 61.301C38.4464 62.5176 40.6225 63.4191 42.8981 63.9737V65.722C42.8981 66.5914 43.2446 67.4251 43.8614 68.0399C44.4783 68.6546 45.3149 69 46.1872 69H50.5727C51.4451 69 52.2817 68.6546 52.8985 68.0399C53.5153 67.4251 53.8619 66.5914 53.8619 65.722V63.9737C56.1371 63.4194 58.3127 62.5182 60.3119 61.3021L61.5596 62.5456C61.865 62.85 62.2276 63.0915 62.6267 63.2563C63.0258 63.4211 63.4536 63.5059 63.8855 63.5059C64.3175 63.5059 64.7453 63.4211 65.1444 63.2563C65.5435 63.0915 65.9061 62.85 66.2115 62.5456L69.3121 59.4555C69.6176 59.1511 69.8599 58.7897 70.0252 58.3919C70.1905 57.9942 70.2756 57.5679 70.2756 57.1374C70.2756 56.7068 70.1905 56.2805 70.0252 55.8828C69.8599 55.4851 69.6176 55.1237 69.3121 54.8193L68.0644 53.5758C69.2851 51.5831 70.1897 49.4144 70.7461 47.1465H72.5004C73.3727 47.1465 74.2093 46.8011 74.8261 46.1864C75.443 45.5716 75.7895 44.7379 75.7895 43.8685V39.4978C75.7895 38.6284 75.443 37.7946 74.8261 37.1799C74.2093 36.5651 73.3727 36.2197 72.5004 36.2197ZM37.4162 41.6831C37.4162 39.522 38.0592 37.4094 39.2639 35.6125C40.4686 33.8156 42.1809 32.4151 44.1843 31.5881C46.1877 30.7611 48.3921 30.5447 50.5189 30.9663C52.6457 31.3879 54.5992 32.4286 56.1326 33.9567C57.6659 35.4849 58.7101 37.4318 59.1331 39.5514C59.5562 41.671 59.339 43.868 58.5092 45.8646C57.6794 47.8612 56.2741 49.5677 54.4711 50.7684C52.6682 51.969 50.5484 52.6099 48.38 52.6099C45.4732 52.6067 42.6863 51.4545 40.6309 49.406C38.5755 47.3575 37.4194 44.5801 37.4162 41.6831ZM48.38 59.1659C48.0892 59.1659 47.8103 59.0508 47.6047 58.8459C47.3991 58.641 47.2836 58.363 47.2836 58.0732C47.2836 57.7835 47.3991 57.5055 47.6047 57.3006C47.8103 57.0957 48.0892 56.9806 48.38 56.9806C52.4495 56.9762 56.3512 55.3631 59.2288 52.4953C62.1064 49.6274 63.725 45.7389 63.7293 41.6831C63.7293 41.3933 63.8448 41.1154 64.0504 40.9105C64.256 40.7056 64.5349 40.5904 64.8257 40.5904C65.1165 40.5904 65.3953 40.7056 65.6009 40.9105C65.8066 41.1154 65.9221 41.3933 65.9221 41.6831C65.9166 46.3182 64.0666 50.7618 60.778 54.0393C57.4894 57.3167 53.0307 59.1604 48.38 59.1659Z" fill="#4AB4BF"/>
<path d="M60.8827 0H4.62529C3.60799 0 2.63235 0.402755 1.91301 1.11966C1.19367 1.83657 0.789551 2.80891 0.789551 3.82277V40.1391C0.789551 41.1529 1.19367 42.1253 1.91301 42.8422C2.63235 43.5591 3.60799 43.9618 4.62529 43.9618H26.3611V51.6074H22.5254C22.1863 51.6074 21.8611 51.7416 21.6213 51.9806C21.3815 52.2196 21.2468 52.5437 21.2468 52.8816C21.2468 53.2196 21.3815 53.5437 21.6213 53.7827C21.8611 54.0216 22.1863 54.1559 22.5254 54.1559H42.9826C43.3217 54.1559 43.6469 54.0216 43.8867 53.7827C44.1265 53.5437 44.2612 53.2196 44.2612 52.8816C44.2612 52.5437 44.1265 52.2196 43.8867 51.9806C43.6469 51.7416 43.3217 51.6074 42.9826 51.6074H39.1469V43.9618H60.8827C61.9 43.9618 62.8757 43.5591 63.595 42.8422C64.3143 42.1253 64.7185 41.1529 64.7185 40.1391V3.82277C64.7185 2.80891 64.3143 1.83657 63.595 1.11966C62.8757 0.402755 61.9 0 60.8827 0ZM36.5897 51.6074H28.9183V43.9618H36.5897V51.6074ZM62.1613 40.1391C62.1613 40.477 62.0266 40.8011 61.7868 41.0401C61.547 41.2791 61.2218 41.4133 60.8827 41.4133H4.62529C4.28619 41.4133 3.96097 41.2791 3.72119 41.0401C3.48141 40.8011 3.34671 40.477 3.34671 40.1391V36.3163H62.1613V40.1391ZM62.1613 33.7678H3.34671V3.82277C3.34671 3.48482 3.48141 3.1607 3.72119 2.92173C3.96097 2.68276 4.28619 2.54851 4.62529 2.54851H60.8827C61.2218 2.54851 61.547 2.68276 61.7868 2.92173C62.0266 3.1607 62.1613 3.48482 62.1613 3.82277V33.7678Z" fill="#0F242B"/>
<path d="M45.5396 6.69104C44.1832 6.69104 42.8824 7.22805 41.9233 8.18392C40.9642 9.1398 40.4253 10.4362 40.4253 11.7881C40.4298 12.6951 40.6803 13.5841 41.1503 14.3608L35.9503 19.5432L30.4614 14.0728C30.2216 13.8339 29.8964 13.6997 29.5574 13.6997C29.2184 13.6997 28.8932 13.8339 28.6535 14.0728L22.5495 20.1561C21.7702 19.6877 20.8782 19.438 19.9681 19.4336C18.9566 19.4336 17.9678 19.7325 17.1267 20.2926C16.2857 20.8527 15.6302 21.6487 15.2431 22.5801C14.856 23.5114 14.7547 24.5363 14.952 25.525C15.1494 26.5137 15.6365 27.4219 16.3517 28.1348C17.067 28.8476 17.9782 29.333 18.9703 29.5297C19.9624 29.7264 20.9907 29.6254 21.9252 29.2397C22.8598 28.8539 23.6585 28.2006 24.2205 27.3624C24.7824 26.5242 25.0824 25.5387 25.0824 24.5306C25.0779 23.6236 24.8274 22.7346 24.3574 21.9579L29.5574 16.7755L35.0464 22.2459C35.2861 22.4848 35.6113 22.619 35.9503 22.619C36.2893 22.619 36.6145 22.4848 36.8543 22.2459L42.9582 16.1626C43.7376 16.631 44.6295 16.8807 45.5396 16.8851C46.896 16.8851 48.1969 16.3481 49.156 15.3922C50.1151 14.4363 50.654 13.1399 50.654 11.7881C50.654 10.4362 50.1151 9.1398 49.156 8.18392C48.1969 7.22805 46.896 6.69104 45.5396 6.69104ZM19.9681 27.0791C19.4623 27.0791 18.9679 26.9297 18.5474 26.6496C18.1269 26.3696 17.7991 25.9716 17.6056 25.5059C17.412 25.0402 17.3614 24.5278 17.4601 24.0334C17.5587 23.5391 17.8023 23.085 18.1599 22.7286C18.5175 22.3721 18.9732 22.1294 19.4692 22.0311C19.9652 21.9327 20.4794 21.9832 20.9467 22.1761C21.4139 22.369 21.8133 22.6956 22.0943 23.1147C22.3753 23.5338 22.5252 24.0266 22.5252 24.5306C22.5252 25.2065 22.2558 25.8548 21.7763 26.3327C21.2967 26.8106 20.6463 27.0791 19.9681 27.0791ZM45.5396 14.3366C45.0339 14.3366 44.5395 14.1871 44.119 13.9071C43.6984 13.627 43.3707 13.229 43.1771 12.7633C42.9836 12.2977 42.933 11.7852 43.0316 11.2909C43.1303 10.7965 43.3738 10.3424 43.7315 9.986C44.0891 9.62958 44.5447 9.38686 45.0408 9.28852C45.5368 9.19019 46.051 9.24066 46.5182 9.43355C46.9855 9.62644 47.3849 9.95309 47.6658 10.3722C47.9468 10.7913 48.0968 11.284 48.0968 11.7881C48.0968 12.464 47.8274 13.1122 47.3478 13.5901C46.8683 14.0681 46.2178 14.3366 45.5396 14.3366Z" fill="#0F242B"/>
</svg>
