<svg width="72" height="72" viewBox="0 0 72 72" fill="none" xmlns="http://www.w3.org/2000/svg">
<path d="M66.1815 60.5728C65.8732 60.5765 65.5752 60.4626 65.348 60.2541C65.1208 60.0457 64.9817 59.7585 64.9588 59.4511L63.9381 37.4654L67.4154 33.9769C67.732 33.6665 67.9842 33.2967 68.1575 32.8886C68.3307 32.4805 68.4216 32.0422 68.425 31.5988V19.0692C68.425 18.1767 68.0704 17.3208 67.4393 16.6897C66.8082 16.0586 65.9523 15.7041 65.0598 15.7041H62.8164C61.9239 15.7041 61.0679 16.0586 60.4368 16.6897C59.8057 17.3208 59.4512 18.1767 59.4512 19.0692V22.4344H53.8426V19.0692C53.8426 18.1767 53.4881 17.3208 52.857 16.6897C52.2259 16.0586 51.3699 15.7041 50.4775 15.7041H48.234C47.3415 15.7041 46.4856 16.0586 45.8545 16.6897C45.2234 17.3208 44.8689 18.1767 44.8689 19.0692V22.4344H39.2603V19.0692C39.2603 18.1767 38.9057 17.3208 38.2746 16.6897C37.6435 16.0586 36.7876 15.7041 35.8951 15.7041H33.6517C32.7592 15.7041 31.9032 16.0586 31.2721 16.6897C30.6411 17.3208 30.2865 18.1767 30.2865 19.0692V31.5988C30.2873 32.491 30.6424 33.3464 31.2736 33.9769L34.7734 37.4654L33.7526 59.4511C33.7298 59.7585 33.5906 60.0457 33.3635 60.2541C33.1363 60.4626 32.8382 60.5765 32.53 60.5728C31.6375 60.5728 30.7815 60.9274 30.1504 61.5585C29.5193 62.1895 29.1648 63.0455 29.1648 63.938V68.4249C29.1648 69.0198 29.4012 69.5905 29.8219 70.0112C30.2426 70.4319 30.8132 70.6683 31.4082 70.6683H67.3032C67.8982 70.6683 68.4689 70.4319 68.8896 70.0112C69.3103 69.5905 69.5467 69.0198 69.5467 68.4249V63.938C69.5467 63.0455 69.1921 62.1895 68.561 61.5585C67.9299 60.9274 67.074 60.5728 66.1815 60.5728ZM61.6946 62.8163H37.0168C36.7193 62.8163 36.434 62.6981 36.2237 62.4877C36.0133 62.2774 35.8951 61.992 35.8951 61.6945C35.8951 61.397 36.0133 61.1117 36.2237 60.9014C36.434 60.691 36.7193 60.5728 37.0168 60.5728H61.6946C61.9921 60.5728 62.2775 60.691 62.4878 60.9014C62.6982 61.1117 62.8164 61.397 62.8164 61.6945C62.8164 61.992 62.6982 62.2774 62.4878 62.4877C62.2775 62.6981 61.9921 62.8163 61.6946 62.8163ZM59.4512 39.2602H39.2603C38.9628 39.2602 38.6775 39.142 38.4671 38.9316C38.2567 38.7213 38.1385 38.4359 38.1385 38.1384C38.1385 37.8409 38.2567 37.5556 38.4671 37.3453C38.6775 37.1349 38.9628 37.0167 39.2603 37.0167H59.4512C59.7487 37.0167 60.034 37.1349 60.2444 37.3453C60.4547 37.5556 60.5729 37.8409 60.5729 38.1384C60.5729 38.4359 60.4547 38.7213 60.2444 38.9316C60.034 39.142 59.7487 39.2602 59.4512 39.2602ZM62.8164 32.5299H35.8951C35.5976 32.5299 35.3123 32.4117 35.1019 32.2013C34.8916 31.9909 34.7734 31.7056 34.7734 31.4081C34.7734 31.1106 34.8916 30.8253 35.1019 30.615C35.3123 30.4046 35.5976 30.2864 35.8951 30.2864H62.8164C63.1139 30.2864 63.3992 30.4046 63.6095 30.615C63.8199 30.8253 63.9381 31.1106 63.9381 31.4081C63.9381 31.7056 63.8199 31.9909 63.6095 32.2013C63.3992 32.4117 63.1139 32.5299 62.8164 32.5299Z" fill="#4AB4BF"/>
<path d="M48.7364 8.05912C44.8856 4.21012 39.98 1.58932 34.6399 0.52807C29.2997 -0.533177 23.7648 0.0127857 18.7349 2.09693C13.705 4.18107 9.40595 7.70981 6.38136 12.237C3.35678 16.7642 1.74243 22.0865 1.74243 27.5311C1.74243 32.9757 3.35678 38.298 6.38136 42.8252C9.40595 47.3524 13.705 50.8812 18.7349 52.9653C23.7648 55.0494 29.2997 55.5954 34.6399 54.5342C39.98 53.4729 44.8856 50.8521 48.7364 47.0031C51.2943 44.4464 53.3234 41.4109 54.7077 38.0698C56.0921 34.7287 56.8047 31.1476 56.8047 27.5311C56.8047 23.9146 56.0921 20.3335 54.7077 16.9924C53.3234 13.6514 51.2943 10.6158 48.7364 8.05912ZM48.2859 31.4105L40.0641 29.183L37.8116 20.7485L43.8934 14.6666L51.0265 15.2172C53.1284 18.9074 54.2567 23.0718 54.3052 27.3184L48.2859 31.4105ZM34.8707 48.4673L39.1381 50.5071C36.9265 51.4495 34.5922 52.0731 32.2052 52.3592L34.8707 48.4673ZM29.0517 52.5719C24.8084 52.5348 20.6442 51.4195 16.9505 49.3307L16.3999 42.1977L22.4817 36.1158L30.9163 38.3684L33.1438 46.5901L29.0517 52.5719ZM4.24864 27.7439L10.2304 23.6517L18.4397 25.8792L20.7047 34.3138L14.6103 40.3957L7.50231 39.845C5.40918 36.1525 4.28953 31.9882 4.24864 27.7439ZM6.28844 17.6575L8.32825 21.9248L4.43635 24.5903C4.7224 22.2033 5.34599 19.8691 6.28844 17.6575ZM31.5044 35.9031L23.1325 33.663L20.8924 25.2911L27.0244 19.1592L35.3963 21.3992L37.6364 29.7711L31.5044 35.9031ZM23.6581 6.59496L19.3908 4.55516C21.6024 3.61271 23.9366 2.98912 26.3236 2.70307L23.6581 6.59496ZM29.4771 2.51535C33.7215 2.55624 37.8858 3.67589 41.5783 5.76903L42.129 12.8896L36.0471 18.984L27.6125 16.7189L25.385 8.50963L29.4771 2.51535ZM54.0925 30.4719C53.8064 32.8589 53.1828 35.1932 52.2404 37.4048L50.2006 33.1375L54.0925 30.4719ZM49.2996 12.5267L44.5942 12.1638L44.2939 7.52101C45.2552 8.23834 46.1667 9.02019 47.022 9.86115C47.8457 10.6924 48.607 11.5833 49.2996 12.5267ZM11.5694 9.83613C13.0646 8.34061 14.7471 7.04505 16.5751 5.98177L22.9323 9.02271L25.2098 17.4197L19.153 23.4765L10.756 21.199L7.71505 14.8543C8.77743 13.0219 10.073 11.3351 11.5694 9.83613ZM9.25429 42.5606L13.9596 42.911L14.26 47.5662C13.2933 46.8602 12.3813 46.0821 11.5319 45.2386C10.7142 44.3974 9.9533 43.5028 9.25429 42.5606ZM46.9844 45.2887C45.4893 46.7842 43.8067 48.0798 41.9788 49.143L35.6341 46.1021L33.3565 37.7051L39.4134 31.6483L47.8104 33.9258L50.8513 40.2705C49.7728 42.0831 48.4647 43.7487 46.9594 45.2261L46.9844 45.2887Z" fill="#181824"/>
</svg>
