<svg width="73" height="72" viewBox="0 0 73 72" fill="none" xmlns="http://www.w3.org/2000/svg">
<g clip-path="url(#clip0_1416_3629)">
<path d="M30.9138 59.6857H35.7854L33.3603 53.2605L30.9138 59.6857Z" fill="#4AB4BF"/>
<path d="M42.3149 45.043H24.3674C23.4749 45.043 22.6189 45.3975 21.9878 46.0286C21.3567 46.6597 21.0022 47.5157 21.0022 48.4082V66.3557C21.0022 67.2481 21.3567 68.1041 21.9878 68.7352C22.6189 69.3663 23.4749 69.7208 24.3674 69.7208H42.3149C43.2073 69.7208 44.0633 69.3663 44.6944 68.7352C45.3255 68.1041 45.68 67.2481 45.68 66.3557V48.4082C45.68 47.5157 45.3255 46.6597 44.6944 46.0286C44.0633 45.3975 43.2073 45.043 42.3149 45.043ZM39.0507 65.1621C38.7725 65.267 38.4641 65.2571 38.1932 65.1347C37.9223 65.0123 37.711 64.7874 37.6059 64.5093L36.6322 61.9294H30.059L29.0752 64.5093C29.0257 64.6507 28.9484 64.7807 28.8478 64.8917C28.7473 65.0027 28.6255 65.0924 28.4897 65.1556C28.3539 65.2188 28.2068 65.2541 28.0571 65.2595C27.9075 65.2649 27.7582 65.2403 27.6182 65.1871C27.4782 65.134 27.3502 65.0533 27.2419 64.9498C27.1336 64.8464 27.0471 64.7223 26.9875 64.5849C26.9279 64.4475 26.8964 64.2996 26.8949 64.1498C26.8934 64 26.9219 63.8515 26.9787 63.7129L32.0332 50.4407C32.1363 50.174 32.3171 49.9444 32.5522 49.7816C32.7873 49.6188 33.0659 49.5304 33.3518 49.5277C33.6377 49.525 33.9179 49.6083 34.156 49.7667C34.3941 49.9251 34.5791 50.1513 34.6872 50.416L39.7069 63.7151C39.759 63.8532 39.7834 64.0002 39.7787 64.1478C39.7739 64.2953 39.7401 64.4404 39.6791 64.5748C39.6182 64.7093 39.5313 64.8304 39.4234 64.9311C39.3156 65.0319 39.1889 65.1104 39.0507 65.1621Z" fill="#4AB4BF"/>
<path d="M46.6031 28.8027C47.127 28.8027 47.6295 28.5946 47.9999 28.2242C48.3704 27.8537 48.5785 27.3513 48.5785 26.8274C48.5785 26.3035 48.3704 25.8011 47.9999 25.4306C47.6295 25.0602 47.127 24.8521 46.6031 24.8521H43.8157V28.8061L46.6031 28.8027Z" fill="#4AB4BF"/>
<path d="M47.2863 31.0494C45.2907 31.0494 46.2633 31.0494 43.8157 31.055V36.0691C44.9609 36.0691 46.6536 36.0568 47.2863 36.0568C47.9497 36.0568 48.5859 35.7932 49.055 35.3241C49.5242 34.855 49.7877 34.2188 49.7877 33.5553C49.7877 32.8919 49.5242 32.2557 49.055 31.7865C48.5859 31.3174 47.9497 31.0539 47.2863 31.0539V31.0494Z" fill="#4AB4BF"/>
<path d="M55.7755 18.1217H37.828C36.9356 18.1217 36.0796 18.4763 35.4485 19.1074C34.8174 19.7385 34.4629 20.5944 34.4629 21.4869V39.4344C34.4629 40.3269 34.8174 41.1828 35.4485 41.8139C36.0796 42.445 36.9356 42.7995 37.828 42.7995H55.7755C56.668 42.7995 57.524 42.445 58.1551 41.8139C58.7862 41.1828 59.1407 40.3269 59.1407 39.4344V21.4869C59.1407 20.5944 58.7862 19.7385 58.1551 19.1074C57.524 18.4763 56.668 18.1217 55.7755 18.1217ZM47.2864 38.2958C46.2948 38.2958 42.6985 38.3127 42.6985 38.3127C42.4011 38.3127 42.1157 38.1945 41.9054 37.9841C41.695 37.7738 41.5768 37.4885 41.5768 37.191V23.7303C41.5768 23.4328 41.695 23.1475 41.9054 22.9372C42.1157 22.7268 42.4011 22.6086 42.6985 22.6086H46.6077C47.4132 22.6043 48.2029 22.832 48.8826 23.2643C49.5622 23.6967 50.103 24.3156 50.4404 25.047C50.7779 25.7784 50.8977 26.5915 50.7855 27.3891C50.6734 28.1868 50.334 28.9353 49.808 29.5453C50.6802 30.0906 51.3511 30.9052 51.7191 31.8657C52.0872 32.8262 52.1325 33.8805 51.8481 34.869C51.5637 35.8576 50.9651 36.7266 50.1429 37.3447C49.3206 37.9627 48.3195 38.2962 47.2909 38.2947L47.2864 38.2958Z" fill="#4AB4BF"/>
<path d="M69.236 45.043H51.2885C50.396 45.043 49.5401 45.3975 48.909 46.0286C48.2779 46.6597 47.9233 47.5157 47.9233 48.4082V66.3557C47.9233 67.2481 48.2779 68.1041 48.909 68.7352C49.5401 69.3663 50.396 69.7208 51.2885 69.7208H69.236C70.1285 69.7208 70.9844 69.3663 71.6155 68.7352C72.2466 68.1041 72.6012 67.2481 72.6012 66.3557V48.4082C72.6012 47.5157 72.2466 46.6597 71.6155 46.0286C70.9844 45.3975 70.1285 45.043 69.236 45.043ZM66.6067 62.9333C65.9829 63.6737 65.2009 64.2647 64.3184 64.6629C63.4359 65.0611 62.4753 65.2562 61.5074 65.2339C60.2793 65.2348 59.0681 64.9477 57.9712 64.3955C56.8742 63.8434 55.9221 63.0416 55.1913 62.0547C54.4604 61.0677 53.9713 59.9231 53.7631 58.7128C53.555 57.5025 53.6336 56.2602 53.9927 55.0858C54.3518 53.9115 54.9814 52.8377 55.8308 51.9507C56.6803 51.0638 57.7259 50.3885 58.8837 49.9791C60.0415 49.5697 61.2793 49.4375 62.4974 49.5933C63.7156 49.749 64.8802 50.1884 65.8978 50.8759C66.0199 50.9584 66.1247 51.064 66.2061 51.1869C66.2874 51.3098 66.3438 51.4476 66.3719 51.5922C66.4 51.7369 66.3994 51.8857 66.37 52.0302C66.3406 52.1746 66.283 52.3118 66.2006 52.434C66.1182 52.5562 66.0125 52.661 65.8896 52.7423C65.7667 52.8237 65.629 52.88 65.4843 52.9081C65.3396 52.9362 65.1908 52.9356 65.0464 52.9062C64.902 52.8768 64.7647 52.8193 64.6426 52.7369C63.9158 52.2451 63.0838 51.9307 62.2134 51.819C61.343 51.7072 60.4586 51.8013 59.6312 52.0936C58.8038 52.3859 58.0565 52.8682 57.4494 53.5019C56.8424 54.1355 56.3924 54.9028 56.1359 55.7419C55.8793 56.5811 55.8232 57.4688 55.9721 58.3336C56.121 59.1984 56.4707 60.0162 56.9932 60.7212C57.5156 61.4262 58.1962 61.9988 58.9802 62.393C59.7643 62.7871 60.6298 62.9918 61.5074 62.9905C62.1478 63.0134 62.7851 62.8905 63.371 62.6308C63.9569 62.3712 64.4761 61.9817 64.8893 61.4919C65.0839 61.2758 65.3547 61.1437 65.6448 61.1234C65.9348 61.1031 66.2214 61.1963 66.4441 61.3832C66.6668 61.5701 66.8083 61.8362 66.8386 62.1254C66.8689 62.4146 66.7858 62.7042 66.6067 62.9333Z" fill="#4AB4BF"/>
<path d="M54.6322 7.85202H53.5104V6.7303C53.5104 5.8378 53.1559 4.98186 52.5248 4.35077C51.8937 3.71969 51.0378 3.36514 50.1453 3.36514H34.4412C33.5673 3.3676 32.7061 3.57498 31.9268 3.97065C31.1476 4.36631 30.472 4.93922 29.9543 5.64335C29.4367 4.93922 28.7611 4.36631 27.9818 3.97065C27.2026 3.57498 26.3414 3.3676 25.4675 3.36514H9.76341C8.87091 3.36514 8.01497 3.71969 7.38388 4.35077C6.75279 4.98186 6.39825 5.8378 6.39825 6.7303V7.85202H5.27653C4.38404 7.85202 3.5281 8.20656 2.89701 8.83765C2.26592 9.46874 1.91138 10.3247 1.91138 11.2172V40.3819C1.91138 41.2744 2.26592 42.1303 2.89701 42.7614C3.5281 43.3925 4.38404 43.747 5.27653 43.747H54.6322C55.5247 43.747 56.3806 43.3925 57.0117 42.7614C57.6428 42.1303 57.9973 41.2744 57.9973 40.3819V11.2172C57.9973 10.3247 57.6428 9.46874 57.0117 8.83765C56.3806 8.20656 55.5247 7.85202 54.6322 7.85202ZM31.0761 8.97374C31.0761 8.08124 31.4306 7.2253 32.0617 6.59421C32.6928 5.96312 33.5487 5.60858 34.4412 5.60858H50.1453C50.4428 5.60858 50.7281 5.72676 50.9385 5.93712C51.1488 6.14749 51.267 6.4328 51.267 6.7303V37.0167H31.0761V8.97374ZM8.64169 6.7303C8.64169 6.4328 8.75987 6.14749 8.97023 5.93712C9.1806 5.72676 9.46591 5.60858 9.76341 5.60858H25.4675C26.36 5.60858 27.2159 5.96312 27.847 6.59421C28.4781 7.2253 28.8326 8.08124 28.8326 8.97374V37.0167H8.64169V6.7303ZM55.7539 40.3819C55.7539 40.6794 55.6357 40.9647 55.4253 41.175C55.215 41.3854 54.9297 41.5036 54.6322 41.5036H5.27653C4.97903 41.5036 4.69372 41.3854 4.48336 41.175C4.273 40.9647 4.15481 40.6794 4.15481 40.3819V11.2172C4.15481 10.9197 4.273 10.6344 4.48336 10.424C4.69372 10.2136 4.97903 10.0955 5.27653 10.0955H6.39825V38.1384C6.39825 38.4359 6.51643 38.7212 6.7268 38.9316C6.93716 39.142 7.22247 39.2601 7.51997 39.2601H52.3887C52.6862 39.2601 52.9715 39.142 53.1819 38.9316C53.3923 38.7212 53.5104 38.4359 53.5104 38.1384V10.0955H54.6322C54.9297 10.0955 55.215 10.2136 55.4253 10.424C55.6357 10.6344 55.7539 10.9197 55.7539 11.2172V40.3819Z" fill="#0F242B"/>
<path d="M46.7801 8.97372H35.5629C35.2654 8.97372 34.9801 9.09191 34.7697 9.30227C34.5593 9.51263 34.4412 9.79794 34.4412 10.0954C34.4412 10.3929 34.5593 10.6783 34.7697 10.8886C34.9801 11.099 35.2654 11.2172 35.5629 11.2172H46.7801C47.0776 11.2172 47.3629 11.099 47.5732 10.8886C47.7836 10.6783 47.9018 10.3929 47.9018 10.0954C47.9018 9.79794 47.7836 9.51263 47.5732 9.30227C47.3629 9.09191 47.0776 8.97372 46.7801 8.97372Z" fill="#0F242B"/>
<path d="M46.9327 13.5913H35.7155C35.418 13.5913 35.1327 13.7095 34.9223 13.9199C34.7119 14.1302 34.5938 14.4155 34.5938 14.713C34.5938 15.0105 34.7119 15.2958 34.9223 15.5062C35.1327 15.7166 35.418 15.8347 35.7155 15.8347H46.9327C47.2302 15.8347 47.5155 15.7166 47.7258 15.5062C47.9362 15.2958 48.0544 15.0105 48.0544 14.713C48.0544 14.4155 47.9362 14.1302 47.7258 13.9199C47.5155 13.7095 47.2302 13.5913 46.9327 13.5913Z" fill="#0F242B"/>
<path d="M24.3457 14.5823H13.1286C12.8311 14.5823 12.5457 14.7005 12.3354 14.9109C12.125 15.1212 12.0068 15.4066 12.0068 15.7041C12.0068 16.0016 12.125 16.2869 12.3354 16.4972C12.5457 16.7076 12.8311 16.8258 13.1286 16.8258H24.3457C24.6432 16.8258 24.9286 16.7076 25.1389 16.4972C25.3493 16.2869 25.4675 16.0016 25.4675 15.7041C25.4675 15.4066 25.3493 15.1212 25.1389 14.9109C24.9286 14.7005 24.6432 14.5823 24.3457 14.5823Z" fill="#0F242B"/>
<path d="M24.3457 8.97372H13.1286C12.8311 8.97372 12.5457 9.09191 12.3354 9.30227C12.125 9.51263 12.0068 9.79794 12.0068 10.0954C12.0068 10.3929 12.125 10.6783 12.3354 10.8886C12.5457 11.099 12.8311 11.2172 13.1286 11.2172H24.3457C24.6432 11.2172 24.9286 11.099 25.1389 10.8886C25.3493 10.6783 25.4675 10.3929 25.4675 10.0954C25.4675 9.79794 25.3493 9.51263 25.1389 9.30227C24.9286 9.09191 24.6432 8.97372 24.3457 8.97372Z" fill="#0F242B"/>
<path d="M24.3457 20.1909H13.1286C12.8311 20.1909 12.5457 20.3091 12.3354 20.5195C12.125 20.7298 12.0068 21.0151 12.0068 21.3126C12.0068 21.6101 12.125 21.8954 12.3354 22.1058C12.5457 22.3162 12.8311 22.4344 13.1286 22.4344H24.3457C24.6432 22.4344 24.9286 22.3162 25.1389 22.1058C25.3493 21.8954 25.4675 21.6101 25.4675 21.3126C25.4675 21.0151 25.3493 20.7298 25.1389 20.5195C24.9286 20.3091 24.6432 20.1909 24.3457 20.1909Z" fill="#0F242B"/>
<path d="M24.3457 25.7995H13.1286C12.8311 25.7995 12.5457 25.9177 12.3354 26.1281C12.125 26.3384 12.0068 26.6238 12.0068 26.9212C12.0068 27.2187 12.125 27.5041 12.3354 27.7144C12.5457 27.9248 12.8311 28.043 13.1286 28.043H24.3457C24.6432 28.043 24.9286 27.9248 25.1389 27.7144C25.3493 27.5041 25.4675 27.2187 25.4675 26.9212C25.4675 26.6238 25.3493 26.3384 25.1389 26.1281C24.9286 25.9177 24.6432 25.7995 24.3457 25.7995Z" fill="#0F242B"/>
<path d="M24.3457 31.4081H13.1286C12.8311 31.4081 12.5457 31.5263 12.3354 31.7367C12.125 31.947 12.0068 32.2323 12.0068 32.5298C12.0068 32.8273 12.125 33.1126 12.3354 33.323C12.5457 33.5334 12.8311 33.6515 13.1286 33.6515H24.3457C24.6432 33.6515 24.9286 33.5334 25.1389 33.323C25.3493 33.1126 25.4675 32.8273 25.4675 32.5298C25.4675 32.2323 25.3493 31.947 25.1389 31.7367C24.9286 31.5263 24.6432 31.4081 24.3457 31.4081Z" fill="#0F242B"/>
</g>
<defs>
<clipPath id="clip0_1416_3629">
<rect width="71.79" height="71.79" fill="white" transform="translate(0.789551)"/>
</clipPath>
</defs>
</svg>
