<svg width="24" height="25" viewBox="0 0 24 25" fill="none" xmlns="http://www.w3.org/2000/svg">
<g clip-path="url(#clip0_1416_2137)">
<path d="M-0.000488281 16.5375H23.9995V24.5375H-0.000488281V16.5375Z" fill="#1EB53A"/>
<path d="M0.000488281 0.538452H24.0005V8.53845H0.000488281V0.538452Z" fill="#0099B5"/>
<path d="M-0.000488281 8.21716H23.9995V16.8572H-0.000488281V8.21716Z" fill="#CE1126"/>
<path d="M-0.000488281 8.69763H23.9995V16.3776H-0.000488281V8.69763Z" fill="#FDFDFD"/>
<path d="M7.71005 7.29845C8.48877 7.29845 9.12005 6.45675 9.12005 5.41845C9.12005 4.38016 8.48877 3.53845 7.71005 3.53845C6.93133 3.53845 6.30005 4.38016 6.30005 5.41845C6.30005 6.45675 6.93133 7.29845 7.71005 7.29845Z" fill="#FDFDFD"/>
<path d="M8.18026 7.29845C8.95899 7.29845 9.59026 6.45675 9.59026 5.41845C9.59026 4.38016 8.95899 3.53845 8.18026 3.53845C7.40154 3.53845 6.77026 4.38016 6.77026 5.41845C6.77026 6.45675 7.40154 7.29845 8.18026 7.29845Z" fill="#0099B5"/>
<path d="M9.88222 5.97009L9.81006 6.25872L9.92019 6.30936" fill="#FDFDFD"/>
<path d="M9.88243 5.97009L9.95459 6.25872L9.84446 6.30936" fill="#FDFDFD"/>
<path d="M10.1008 6.16986L9.87138 6.18806L9.86186 6.33178" fill="#FDFDFD"/>
<path d="M10.1038 6.17334L9.91045 6.3567L9.8458 6.24834" fill="#FDFDFD"/>
<path d="M9.66039 6.17658L9.85371 6.35993L9.91836 6.25157" fill="#FDFDFD"/>
<path d="M9.66358 6.17279L9.89302 6.19099L9.90254 6.33471" fill="#FDFDFD"/>
<path d="M10.013 6.51717L9.95184 6.2283L9.83605 6.28063" fill="#FDFDFD"/>
<path d="M10.0146 6.51601L9.83001 6.3482L9.90269 6.21576" fill="#FDFDFD"/>
<path d="M9.74675 6.52318L9.93316 6.33891L9.87101 6.21578" fill="#FDFDFD"/>
<path d="M9.74568 6.52029L9.8206 6.22928L9.9286 6.26905" fill="#FDFDFD"/>
<path d="M9.88222 4.7543L9.81006 5.04293L9.92019 5.09357" fill="#FDFDFD"/>
<path d="M9.88243 4.7543L9.95459 5.04293L9.84446 5.09357" fill="#FDFDFD"/>
<path d="M10.1013 4.95416L9.87187 4.97236L9.86235 5.11608" fill="#FDFDFD"/>
<path d="M10.103 4.95758L9.90971 5.14094L9.84507 5.03258" fill="#FDFDFD"/>
<path d="M9.66039 4.96079L9.85371 5.14414L9.91836 5.03578" fill="#FDFDFD"/>
<path d="M9.66358 4.957L9.89302 4.9752L9.90254 5.11892" fill="#FDFDFD"/>
<path d="M10.0139 5.30138L9.95282 5.01251L9.83703 5.06484" fill="#FDFDFD"/>
<path d="M10.0156 5.30022L9.83099 5.13241L9.90367 4.99997" fill="#FDFDFD"/>
<path d="M9.74773 5.30739L9.93414 5.12312L9.87199 4.99999" fill="#FDFDFD"/>
<path d="M9.74666 5.3045L9.82158 5.01349L9.92958 5.05326" fill="#FDFDFD"/>
<path d="M9.88222 3.53845L9.81006 3.82708L9.92019 3.87771" fill="#FDFDFD"/>
<path d="M9.88243 3.53845L9.95459 3.82708L9.84446 3.87771" fill="#FDFDFD"/>
<path d="M10.1008 3.73822L9.87138 3.75642L9.86186 3.90014" fill="#FDFDFD"/>
<path d="M10.1038 3.7417L9.91045 3.92506L9.8458 3.81669" fill="#FDFDFD"/>
<path d="M9.66039 3.74494L9.85371 3.92829L9.91836 3.81993" fill="#FDFDFD"/>
<path d="M9.66358 3.74115L9.89302 3.75934L9.90254 3.90307" fill="#FDFDFD"/>
<path d="M10.0117 4.08553L9.95062 3.79666L9.83483 3.84899" fill="#FDFDFD"/>
<path d="M10.0134 4.08437L9.82879 3.91656L9.90147 3.78411" fill="#FDFDFD"/>
<path d="M9.74626 4.09153L9.93267 3.90727L9.87052 3.78413" fill="#FDFDFD"/>
<path d="M9.74519 4.08865L9.82012 3.79764L9.92811 3.83741" fill="#FDFDFD"/>
<path d="M10.7931 5.97009L10.7209 6.25872L10.8311 6.30936" fill="#FDFDFD"/>
<path d="M10.7933 5.97009L10.8655 6.25872L10.7553 6.30936" fill="#FDFDFD"/>
<path d="M11.0124 6.16986L10.783 6.18806L10.7735 6.33178" fill="#FDFDFD"/>
<path d="M11.0142 6.17337L10.8208 6.35673L10.7562 6.24837" fill="#FDFDFD"/>
<path d="M10.5723 6.17658L10.7656 6.35993L10.8302 6.25157" fill="#FDFDFD"/>
<path d="M10.5747 6.17279L10.8042 6.19099L10.8137 6.33471" fill="#FDFDFD"/>
<path d="M10.9236 6.51717L10.8625 6.2283L10.7467 6.28063" fill="#FDFDFD"/>
<path d="M10.9253 6.51601L10.7407 6.3482L10.8133 6.21576" fill="#FDFDFD"/>
<path d="M10.6586 6.52318L10.845 6.33891L10.7829 6.21578" fill="#FDFDFD"/>
<path d="M10.6575 6.52029L10.7325 6.22928L10.8405 6.26905" fill="#FDFDFD"/>
<path d="M10.7931 4.75427L10.7209 5.0429L10.8311 5.09353" fill="#FDFDFD"/>
<path d="M10.7933 4.75427L10.8655 5.0429L10.7553 5.09353" fill="#FDFDFD"/>
<path d="M11.0124 4.95404L10.783 4.97224L10.7735 5.11596" fill="#FDFDFD"/>
<path d="M11.0142 4.95755L10.8208 5.14091L10.7562 5.03255" fill="#FDFDFD"/>
<path d="M10.5723 4.96076L10.7656 5.14411L10.8302 5.03575" fill="#FDFDFD"/>
<path d="M10.5747 4.95697L10.8042 4.97517L10.8137 5.11889" fill="#FDFDFD"/>
<path d="M10.9241 5.30135L10.863 5.01248L10.7472 5.06481" fill="#FDFDFD"/>
<path d="M10.9258 5.30019L10.7411 5.13238L10.8138 4.99994" fill="#FDFDFD"/>
<path d="M10.6579 5.30735L10.8443 5.12309L10.7821 4.99995" fill="#FDFDFD"/>
<path d="M10.6568 5.30447L10.7317 5.01346L10.8397 5.05323" fill="#FDFDFD"/>
<path d="M10.7931 3.53845L10.7209 3.82708L10.8311 3.87771" fill="#FDFDFD"/>
<path d="M10.7933 3.53842L10.8655 3.82705L10.7553 3.87768" fill="#FDFDFD"/>
<path d="M11.0124 3.73822L10.783 3.75642L10.7735 3.90014" fill="#FDFDFD"/>
<path d="M11.0142 3.74173L10.8208 3.92509L10.7562 3.81672" fill="#FDFDFD"/>
<path d="M10.572 3.74494L10.7653 3.92829L10.83 3.81993" fill="#FDFDFD"/>
<path d="M10.5745 3.74115L10.8039 3.75934L10.8134 3.90307" fill="#FDFDFD"/>
<path d="M10.9234 4.08553L10.8622 3.79666L10.7465 3.84899" fill="#FDFDFD"/>
<path d="M10.925 4.08437L10.7404 3.91656L10.8131 3.78411" fill="#FDFDFD"/>
<path d="M10.6571 4.09153L10.8436 3.90727L10.7814 3.78413" fill="#FDFDFD"/>
<path d="M10.6561 4.08865L10.731 3.79764L10.839 3.83741" fill="#FDFDFD"/>
<path d="M11.7052 5.97009L11.6331 6.25872L11.7432 6.30936" fill="#FDFDFD"/>
<path d="M11.7052 5.97006L11.7773 6.25869L11.6672 6.30932" fill="#FDFDFD"/>
<path d="M11.9241 6.16998L11.6946 6.18818L11.6851 6.3319" fill="#FDFDFD"/>
<path d="M11.926 6.17337L11.7327 6.35673L11.6681 6.24837" fill="#FDFDFD"/>
<path d="M11.4849 6.1763L11.6782 6.35966L11.7428 6.2513" fill="#FDFDFD"/>
<path d="M11.4868 6.17279L11.7163 6.19099L11.7258 6.33471" fill="#FDFDFD"/>
<path d="M11.836 6.51717L11.7748 6.2283L11.659 6.28063" fill="#FDFDFD"/>
<path d="M11.8376 6.51601L11.653 6.3482L11.7257 6.21576" fill="#FDFDFD"/>
<path d="M11.5693 6.52318L11.7557 6.33891L11.6935 6.21578" fill="#FDFDFD"/>
<path d="M11.5682 6.52029L11.6431 6.22928L11.7511 6.26905" fill="#FDFDFD"/>
<path d="M11.7059 4.75424L11.6338 5.04287L11.7439 5.0935" fill="#FDFDFD"/>
<path d="M11.7059 4.75421L11.7781 5.04284L11.6679 5.09347" fill="#FDFDFD"/>
<path d="M11.9246 4.95401L11.6951 4.9722L11.6856 5.11593" fill="#FDFDFD"/>
<path d="M11.9275 4.95749L11.7342 5.14084L11.6695 5.03248" fill="#FDFDFD"/>
<path d="M11.4846 4.96079L11.6779 5.14414L11.7426 5.03578" fill="#FDFDFD"/>
<path d="M11.4871 4.957L11.7165 4.9752L11.726 5.11892" fill="#FDFDFD"/>
<path d="M11.8365 5.30138L11.7753 5.01251L11.6595 5.06484" fill="#FDFDFD"/>
<path d="M11.8381 5.30022L11.6535 5.13241L11.7262 4.99997" fill="#FDFDFD"/>
<path d="M11.5702 5.30739L11.7566 5.12312L11.6945 4.99999" fill="#FDFDFD"/>
<path d="M11.5697 5.3045L11.6446 5.01349L11.7526 5.05326" fill="#FDFDFD"/>
<path d="M11.7055 3.53845L11.6333 3.82708L11.7434 3.87771" fill="#FDFDFD"/>
<path d="M11.7054 3.53848L11.7776 3.82711L11.6675 3.87775" fill="#FDFDFD"/>
<path d="M11.9241 3.73822L11.6946 3.75642L11.6851 3.90014" fill="#FDFDFD"/>
<path d="M11.927 3.7417L11.7337 3.92506L11.669 3.81669" fill="#FDFDFD"/>
<path d="M11.4844 3.74494L11.6777 3.92829L11.7423 3.81993" fill="#FDFDFD"/>
<path d="M11.4868 3.74115L11.7163 3.75934L11.7258 3.90307" fill="#FDFDFD"/>
<path d="M11.8357 4.08553L11.7746 3.79666L11.6588 3.84899" fill="#FDFDFD"/>
<path d="M11.8374 4.08437L11.6528 3.91656L11.7254 3.78411" fill="#FDFDFD"/>
<path d="M11.5697 4.09135L11.7562 3.90709L11.694 3.78395" fill="#FDFDFD"/>
<path d="M11.5679 4.08862L11.6429 3.79761L11.7509 3.83738" fill="#FDFDFD"/>
<path d="M8.05922 5.97009L7.98706 6.25872L8.09719 6.30936" fill="#FDFDFD"/>
<path d="M8.05919 5.97006L8.13135 6.25869L8.02121 6.30932" fill="#FDFDFD"/>
<path d="M8.27782 6.16986L8.04839 6.18806L8.03886 6.33178" fill="#FDFDFD"/>
<path d="M8.27955 6.17337L8.08623 6.35673L8.02158 6.24837" fill="#FDFDFD"/>
<path d="M7.83788 6.17658L8.0312 6.35993L8.09585 6.25157" fill="#FDFDFD"/>
<path d="M7.84034 6.17279L8.06978 6.19099L8.0793 6.33471" fill="#FDFDFD"/>
<path d="M8.19265 6.51717L8.13153 6.2283L8.01574 6.28063" fill="#FDFDFD"/>
<path d="M8.19431 6.51601L8.0097 6.3482L8.08238 6.21576" fill="#FDFDFD"/>
<path d="M7.92644 6.52318L8.11285 6.33891L8.0507 6.21578" fill="#FDFDFD"/>
<path d="M7.92537 6.52029L8.00029 6.22928L8.10829 6.26905" fill="#FDFDFD"/>
<path d="M8.97084 5.97009L8.89868 6.25872L9.00882 6.30936" fill="#FDFDFD"/>
<path d="M8.97057 5.97009L9.04272 6.25872L8.93259 6.30936" fill="#FDFDFD"/>
<path d="M9.19018 6.16986L8.96074 6.18806L8.95122 6.33178" fill="#FDFDFD"/>
<path d="M9.1919 6.17337L8.99858 6.35673L8.93393 6.24837" fill="#FDFDFD"/>
<path d="M8.74975 6.17658L8.94307 6.35993L9.00772 6.25157" fill="#FDFDFD"/>
<path d="M8.75221 6.17279L8.98164 6.19099L8.99117 6.33471" fill="#FDFDFD"/>
<path d="M9.1011 6.51704L9.03997 6.22817L8.92418 6.28051" fill="#FDFDFD"/>
<path d="M9.10398 6.51601L8.91937 6.3482L8.99205 6.21576" fill="#FDFDFD"/>
<path d="M8.83562 6.52318L9.02203 6.33891L8.95988 6.21578" fill="#FDFDFD"/>
<path d="M8.83455 6.52029L8.90947 6.22928L9.01747 6.26905" fill="#FDFDFD"/>
<path d="M8.97108 4.75427L8.89893 5.0429L9.00906 5.09353" fill="#FDFDFD"/>
<path d="M8.97106 4.7543L9.04321 5.04293L8.93308 5.09357" fill="#FDFDFD"/>
<path d="M9.1892 4.95404L8.95976 4.97224L8.95024 5.11596" fill="#FDFDFD"/>
<path d="M9.19215 4.95752L8.99883 5.14088L8.93418 5.03251" fill="#FDFDFD"/>
<path d="M8.75024 4.96048L8.94356 5.14384L9.0082 5.03547" fill="#FDFDFD"/>
<path d="M8.75221 4.95697L8.98164 4.97517L8.99117 5.11889" fill="#FDFDFD"/>
<path d="M9.10135 5.30119L9.04022 5.01232L8.92443 5.06466" fill="#FDFDFD"/>
<path d="M9.10373 5.30019L8.91912 5.13238L8.9918 4.99994" fill="#FDFDFD"/>
<path d="M8.83415 5.30735L9.02057 5.12309L8.95841 4.99995" fill="#FDFDFD"/>
<path d="M8.83308 5.30447L8.90801 5.01346L9.016 5.05323" fill="#FDFDFD"/>
</g>
<defs>
<clipPath id="clip0_1416_2137">
<rect width="24" height="24" fill="white" transform="translate(0 0.538452)"/>
</clipPath>
</defs>
</svg>
