<svg width="65" height="64" viewBox="0 0 65 64" fill="none" xmlns="http://www.w3.org/2000/svg">
<g clip-path="url(#clip0_2837_12332)">
<path d="M32.5 64C50.1731 64 64.5 49.6731 64.5 32C64.5 14.3269 50.1731 0 32.5 0C14.8269 0 0.5 14.3269 0.5 32C0.5 49.6731 14.8269 64 32.5 64Z" fill="url(#paint0_linear_2837_12332)"/>
<path d="M62.5277 43.0813C58.3664 54.3588 48.0277 62.6488 35.6214 63.8488L13.2102 41.4376L12.9189 40.0788L15.2064 34.5488L19.1177 29.905L24.9464 27.1488L21.6739 23.875L20.0002 19.0775L21.4589 14.7188L24.6589 12L29.1802 11.5188L32.5002 13.0538L62.5277 43.0813Z" fill="url(#paint1_linear_2837_12332)"/>
<path d="M43.4902 30.73C41.9381 30.7279 40.4025 31.0493 38.9815 31.6737C38.5111 31.1169 38.0055 30.5908 37.4677 30.0987C35.5927 28.3912 33.4802 27.2237 31.2177 26.6225C32.9352 25.8207 34.3279 24.4571 35.1656 22.7569C36.0034 21.0567 36.2362 19.1216 35.8256 17.2712C35.4149 15.4208 34.3854 13.7658 32.9071 12.5796C31.4288 11.3933 29.59 10.7468 27.6946 10.7468C25.7992 10.7468 23.9605 11.3933 22.4822 12.5796C21.0038 13.7658 19.9743 15.4208 19.5637 17.2712C19.153 19.1216 19.3858 21.0567 20.2236 22.7569C21.0614 24.4571 22.454 25.8207 24.1715 26.6225C21.914 27.2175 19.7965 28.3912 17.9215 30.0987C15.214 32.57 13.2177 36.0637 12.2965 39.935C12.2191 40.2592 12.2151 40.5966 12.285 40.9226C12.3548 41.2485 12.4967 41.5547 12.7002 41.8187C15.138 44.9882 18.5161 47.3051 22.3508 48.4379C26.1855 49.5706 30.2803 49.4611 34.049 48.125C35.1117 49.7617 36.5816 51.094 38.3144 51.9914C40.0473 52.8888 41.9837 53.3204 43.9336 53.2438C45.8836 53.1672 47.7801 52.5851 49.4373 51.5546C51.0944 50.5241 52.4553 49.0806 53.3864 47.3656C54.3175 45.6506 54.7868 43.7231 54.7484 41.772C54.71 39.8209 54.1651 37.9134 53.1672 36.2364C52.1693 34.5594 50.7526 33.1705 49.0562 32.2061C47.3597 31.2416 45.4417 30.7347 43.4902 30.735V30.73ZM20.6252 19.0775C20.625 17.6773 21.04 16.3085 21.8177 15.1443C22.5954 13.98 23.701 13.0725 24.9945 12.5366C26.288 12.0006 27.7114 11.8603 29.0847 12.1334C30.4579 12.4065 31.7194 13.0807 32.7094 14.0708C33.6995 15.0608 34.3737 16.3223 34.6468 17.6955C34.9199 19.0688 34.7796 20.4922 34.2437 21.7857C33.7077 23.0792 32.8002 24.1848 31.636 24.9625C30.4717 25.7402 29.1029 26.1552 27.7027 26.155C25.8263 26.153 24.0273 25.4067 22.7004 24.0798C21.3735 22.753 20.6272 20.9539 20.6252 19.0775ZM27.7027 47.9525C24.9959 47.961 22.3239 47.3426 19.8961 46.1457C17.4682 44.9488 15.3506 43.206 13.709 41.0537C13.6191 40.9368 13.5564 40.8012 13.5255 40.657C13.4946 40.5128 13.4962 40.3635 13.5302 40.22C15.3177 32.6787 21.1452 27.4125 27.7027 27.4125C30.9815 27.4125 34.0777 28.7287 36.5777 30.9887C37.0183 31.387 37.4356 31.8102 37.8277 32.2562C35.3541 33.6939 33.5211 36.0201 32.7018 38.7614C31.8826 41.5027 32.1386 44.4532 33.4177 47.0125C31.5762 47.6386 29.6441 47.9575 27.699 47.9562L27.7027 47.9525ZM43.4902 52C41.2722 52.0012 39.1166 51.2657 37.362 49.9089C35.6073 48.5521 34.3531 46.6508 33.7963 44.5038C33.2395 42.3568 33.4116 40.0857 34.2857 38.0471C35.1597 36.0086 36.6862 34.3181 38.6252 33.2412C38.9974 33.0329 39.3828 32.8492 39.779 32.6912C41.1485 32.1455 42.6216 31.9089 44.093 31.9985C45.5645 32.088 46.9981 32.5015 48.2912 33.2094C49.5844 33.9172 50.7052 34.902 51.5736 36.0932C52.4421 37.2845 53.0367 38.6529 53.3149 40.1006C53.5932 41.5483 53.5482 43.0396 53.1833 44.4679C52.8184 45.8962 52.1424 47.2263 51.2038 48.3631C50.2653 49.4999 49.0872 50.4154 47.7537 51.0441C46.4203 51.6728 44.9645 51.9992 43.4902 52Z" fill="white"/>
<path d="M41.159 46.57C41.0743 46.5701 40.9903 46.5535 40.912 46.5212C40.8337 46.4888 40.7626 46.4412 40.7027 46.3812L37.5002 43.1749C37.3794 43.0541 37.3115 42.8902 37.3115 42.7193C37.3115 42.5484 37.3794 42.3845 37.5002 42.2637C37.6211 42.1429 37.785 42.075 37.9559 42.075C38.1268 42.075 38.2907 42.1429 38.4115 42.2637L41.1615 45.0137L48.5765 37.5987C48.6973 37.4779 48.8612 37.41 49.0321 37.41C49.203 37.41 49.3669 37.4779 49.4877 37.5987C49.6086 37.7195 49.6765 37.8834 49.6765 38.0543C49.6765 38.2252 49.6086 38.3891 49.4877 38.5099L41.6127 46.3849C41.492 46.5043 41.3288 46.5708 41.159 46.57Z" fill="white"/>
</g>
<defs>
<linearGradient id="paint0_linear_2837_12332" x1="0.5" y1="32" x2="64.5" y2="32" gradientUnits="userSpaceOnUse">
<stop stop-color="#E8F3F3"/>
<stop offset="1" stop-color="#4AB4BF"/>
</linearGradient>
<linearGradient id="paint1_linear_2837_12332" x1="15.8914" y1="20.2826" x2="52.6814" y2="57.0726" gradientUnits="userSpaceOnUse">
<stop stop-color="#285C61"/>
<stop offset="1" stop-color="#338AA7" stop-opacity="0"/>
</linearGradient>
<clipPath id="clip0_2837_12332">
<rect width="64" height="64" fill="white" transform="translate(0.5)"/>
</clipPath>
</defs>
</svg>
